<svg aria-hidden="true" style="position: absolute; width: 0; height: 0; overflow: hidden;" version="1.1" xmlns="http://www.w3.org/2000/svg" xmlns:xlink="http://www.w3.org/1999/xlink">
<defs>

<symbol id="icon-decorative-dot" viewBox="0 0 32 32">
<path fill="#c1c4ca" style="fill: var(--color1, #c1c4ca)" d="M19.584 1.536l10.88 10.88c2.048 2.048 2.048 5.248 0 7.296l-10.88 10.88c-2.048 2.048-5.248 2.048-7.296 0l-10.88-10.88c-2.048-2.048-2.048-5.248 0-7.296l10.88-10.88c2.048-2.048 5.376-2.048 7.296 0z"></path>
</symbol>
<symbol id="icon-location" viewBox="0 0 32 32">
<path fill="#449399" style="fill: var(--color2, #449399)" d="M16.167 8c-1.215 0-2.2 0.985-2.2 2.2s0.985 2.2 2.2 2.2c1.215 0 2.2-0.985 2.2-2.2v0c0-1.215-0.985-2.2-2.2-2.2v0z"></path>
<path fill="#449399" style="fill: var(--color2, #449399)" d="M16.167 3.333c-3.681 0.004-6.663 2.987-6.667 6.667v0c0 5.674 2.121 13.917 5.673 17.889 0.245 0.273 0.6 0.444 0.994 0.444s0.749-0.171 0.993-0.443l0.001-0.001c3.551-3.971 5.673-12.214 5.673-17.889-0.005-3.68-2.987-6.662-6.667-6.667h-0zM16.167 13.733c-1.951 0-3.533-1.582-3.533-3.533s1.582-3.533 3.533-3.533c1.951 0 3.533 1.582 3.533 3.533v0c-0.003 1.95-1.583 3.53-3.533 3.533h-0z"></path>
</symbol>
<symbol id="icon-mail" viewBox="0 0 32 32">
<path fill="#449399" style="fill: var(--color2, #449399)" d="M16 20.117c-0.001 0-0.002 0-0.003 0-0.549 0-1.047-0.222-1.409-0.58l0 0-11.256-11.208v15.615c0.005 1.030 0.788 1.875 1.791 1.979l0.009 0.001 6.391-6.39c0.119-0.114 0.282-0.184 0.46-0.184 0.368 0 0.667 0.299 0.667 0.667 0 0.178-0.070 0.341-0.184 0.46l-5.469 5.467h18l-5.465-5.468c-0.114-0.119-0.184-0.282-0.184-0.46 0-0.368 0.299-0.667 0.667-0.667 0.178 0 0.341 0.070 0.46 0.184l6.39 6.39c1.012-0.105 1.795-0.95 1.8-1.979v-15.614l-11.255 11.206c-0.361 0.359-0.86 0.581-1.409 0.581-0.001 0-0.001 0-0.002 0h0z"></path>
<path fill="#449399" style="fill: var(--color2, #449399)" d="M16.471 18.592l11.785-11.736c-0.366-0.486-0.941-0.798-1.589-0.8h-21.334c-0.648 0.002-1.223 0.314-1.585 0.795l-0.004 0.005 11.784 11.736c0.121 0.12 0.287 0.195 0.472 0.195s0.351-0.074 0.472-0.195l-0 0z"></path>
</symbol>
<symbol id="icon-mark" viewBox="0 0 32 32">
<path  d="M15.959 32c-1.221 0-2.361-0.489-3.176-1.303l-11.481-11.562c-1.71-1.71-1.71-4.56 0-6.351 0 0 0 0 0 0l11.481-11.481c1.71-1.71 4.56-1.71 6.351 0 0 0 0 0 0 0l11.481 11.481c1.71 1.791 1.71 4.56 0 6.351l-11.481 11.481c-0.814 0.896-1.954 1.303-3.176 1.384zM15.959 2.443c-0.57 0-1.059 0.244-1.466 0.57l-11.481 11.481c-0.814 0.814-0.814 2.117 0 2.85l11.481 11.481c0.814 0.733 2.036 0.733 2.85 0l11.481-11.481c0.814-0.814 0.814-2.117 0-2.85l-11.399-11.481c-0.407-0.407-0.896-0.57-1.466-0.57z"></path>
<path d="M17.343 9.282l5.374 5.374c0.733 0.733 0.733 1.954 0 2.687l-5.374 5.374c-0.733 0.733-1.954 0.733-2.687 0l-5.374-5.374c-0.733-0.733-0.733-1.954 0-2.687l5.374-5.374c0.733-0.733 1.873-0.733 2.687 0z"></path>
</symbol>
<symbol id="icon-phone" viewBox="0 0 32 32">
<path fill="#449399" style="fill: var(--color2, #449399)" d="M16.653 24c0 0.368-0.299 0.667-0.667 0.667s-0.667-0.299-0.667-0.667c0-0.368 0.299-0.667 0.667-0.667s0.667 0.299 0.667 0.667z"></path>
<path fill="#449399" style="fill: var(--color2, #449399)" d="M21.986 3.333h-11.972c-1.105 0-2 0.895-2 2v0 21.333c0 1.105 0.895 2 2 2v0h11.972c1.105 0 2-0.895 2-2v0-21.333c0-1.105-0.895-2-2-2v0zM15.986 26c-1.105 0-2-0.895-2-2s0.895-2 2-2c1.105 0 2 0.895 2 2v0c0 1.105-0.895 2-2 2v0zM17.986 8.667h-4c-0.357-0.014-0.641-0.307-0.641-0.666s0.284-0.652 0.64-0.666l0.001-0h4c0.008-0 0.017-0 0.026-0 0.368 0 0.667 0.299 0.667 0.667s-0.299 0.667-0.667 0.667c-0.009 0-0.018-0-0.027-0.001l0.001 0z"></path>
</symbol>
<symbol id="icon-sub-mark" viewBox="0 0 32 32">
<path fill="#c1c4ca" style="fill: var(--color1, #c1c4ca)" d="M16 32c-2.162 0-4.18-0.865-5.622-2.306l-8.072-8.072c-3.027-3.027-3.027-8.072 0-11.243 0 0 0 0 0 0l8.072-8.072c3.027-3.027 8.072-3.027 11.243 0 0 0 0 0 0 0l8.072 8.072c3.027 3.027 3.027 8.072 0 11.243 0 0 0 0 0 0l-8.072 8.072c-1.586 1.441-3.604 2.306-5.622 2.306zM13.405 26.523c1.441 1.441 3.748 1.441 5.045 0l8.072-8.072c1.441-1.441 1.441-3.604 0-5.045 0 0 0 0 0 0l-8.072-8.072c-1.441-1.441-3.748-1.441-5.045 0l-8.072 8.072c-1.441 1.441-1.441 3.604 0 5.045 0 0 0 0 0 0l8.072 8.072z"></path>
</symbol>

<symbol id="icon-github" viewBox="0 0 33 32">
<path d="M16.285 0c-9.005 0-16.285 7.333-16.285 16.406 0 7.252 4.664 13.391 11.135 15.563 0.809 0.163 1.105-0.353 1.105-0.787 0-0.38-0.027-1.684-0.027-3.042-4.53 0.978-5.473-1.956-5.473-1.956-0.728-1.901-1.807-2.39-1.807-2.39-1.483-1.005 0.108-1.005 0.108-1.005 1.645 0.109 2.508 1.684 2.508 1.684 1.456 2.499 3.801 1.793 4.745 1.358 0.135-1.059 0.566-1.793 1.025-2.2-3.613-0.38-7.414-1.793-7.414-8.094 0-1.793 0.647-3.259 1.671-4.4-0.162-0.407-0.728-2.092 0.162-4.346 0 0 1.375-0.435 4.475 1.684 1.221-0.343 2.622-0.542 4.070-0.543h0.001c1.375 0 2.777 0.19 4.071 0.543 3.101-2.119 4.476-1.684 4.476-1.684 0.89 2.254 0.323 3.939 0.162 4.346 1.052 1.141 1.672 2.607 1.672 4.4 0 6.302-3.801 7.687-7.441 8.094 0.593 0.516 1.105 1.494 1.105 3.042 0 2.2-0.027 3.966-0.027 4.509 0 0.435 0.297 0.951 1.105 0.788 6.471-2.173 11.135-8.312 11.135-15.564 0.027-9.072-7.28-16.406-16.258-16.406z"></path>
</symbol>
<symbol id="icon-telegram" viewBox="0 0 32 32">
<path d="M14.531-0.031c0.958 0 1.917 0 2.875 0 5.603 0.68 9.822 3.451 12.656 8.313 1.043 1.967 1.679 4.050 1.906 6.25 0 0.958 0 1.917 0 2.875-0.68 5.603-3.451 9.822-8.313 12.656-1.967 1.043-4.050 1.679-6.25 1.906-0.958 0-1.917 0-2.875 0-5.603-0.68-9.822-3.451-12.656-8.313-1.043-1.967-1.679-4.050-1.906-6.25 0-0.958 0-1.917 0-2.875 0.68-5.603 3.451-9.821 8.313-12.656 1.967-1.043 4.050-1.679 6.25-1.906z"></path>
<path fill="#fefefe" style="fill: var(--color2, #fefefe)" d="M22.844 9.594c0.85 0.029 1.173 0.466 0.969 1.313-0.89 4.324-1.827 8.636-2.813 12.938-0.361 0.354-0.767 0.406-1.219 0.156-1.327-1.012-2.671-2.002-4.031-2.969-0.717 0.654-1.415 1.331-2.094 2.031-0.187 0.13-0.395 0.203-0.625 0.219 0.091-1.354 0.185-2.708 0.281-4.063 2.519-2.248 5.019-4.519 7.5-6.813 0.022-0.151-0.051-0.214-0.219-0.188-0.158 0.016-0.304 0.069-0.438 0.156-3 1.896-6 3.792-9 5.688-0.104 0.042-0.208 0.042-0.313 0-1.271-0.396-2.542-0.792-3.813-1.188-0.627-0.215-0.71-0.549-0.25-1 0.365-0.191 0.74-0.358 1.125-0.5 4.998-1.898 9.977-3.825 14.938-5.781z"></path>
</symbol>

<symbol id="icon-en" viewBox="0 0 32 32">
<path fill="#d80027" style="fill: var(--color1, #d80027)" d="M14.531-0.031c0.958 0 1.917 0 2.875 0 0.202 0.046 0.41 0.088 0.625 0.125 0 4.604 0 9.208 0 13.813 4.604 0 9.208 0 13.813 0 0.037 0.215 0.079 0.423 0.125 0.625 0 0.958 0 1.917 0 2.875-0.046 0.202-0.088 0.41-0.125 0.625-4.604 0-9.208 0-13.813 0 0 4.604 0 9.208 0 13.813-0.215 0.037-0.423 0.079-0.625 0.125-0.958 0-1.917 0-2.875 0-0.202-0.046-0.41-0.088-0.625-0.125 0-4.604 0-9.208 0-13.813-4.604 0-9.208 0-13.813 0-0.037-0.215-0.079-0.423-0.125-0.625 0-0.958 0-1.917 0-2.875 0.042-0.208 0.083-0.417 0.125-0.625 4.604 0 9.208 0 13.813 0 0-4.604 0-9.208 0-13.813 0.215-0.037 0.423-0.079 0.625-0.125z"></path>
<path fill="#efefef" style="fill: var(--color2, #efefef)" opacity="0.998" d="M13.844 0.094c0 4.583 0 9.167 0 13.75-4.583 0-9.167 0-13.75 0 0.069-0.678 0.194-1.344 0.375-2 2.792 0.021 5.584 0 8.375-0.063-0.008-0.038-0.029-0.059-0.063-0.063-1.821-1.79-3.633-3.592-5.438-5.406-0.037-0.029-0.079-0.039-0.125-0.031 0.145-0.228 0.312-0.436 0.5-0.625 2.021 2.063 4.063 4.104 6.125 6.125 0.636 0.083 1.282 0.083 1.938 0-0.008-0.038-0.029-0.059-0.063-0.063-2.333-2.375-4.688-4.729-7.063-7.063 0.469-0.567 1.010-1.046 1.625-1.438-0.008 0.046 0.002 0.088 0.031 0.125 1.815 1.804 3.617 3.617 5.406 5.438 0.004 0.034 0.025 0.055 0.063 0.063 0.063-2.791 0.083-5.583 0.063-8.375 0.656-0.179 1.323-0.304 2-0.375z"></path>
<path fill="#efefef" style="fill: var(--color2, #efefef)" opacity="0.998" d="M18.094 0.094c0.732 0.067 1.44 0.213 2.125 0.438-0.021 0-0.042 0-0.063 0-0.083 2.761-0.083 5.531 0 8.313 0.038-0.008 0.059-0.029 0.063-0.063 1.813-1.854 3.646-3.688 5.5-5.5 0.206 0.122 0.393 0.268 0.563 0.438-2.063 2.021-4.104 4.063-6.125 6.125-0.083 0.636-0.083 1.282 0 1.938 0.038-0.008 0.059-0.029 0.063-0.063 2.375-2.333 4.729-4.688 7.063-7.063 0.551 0.446 1.009 0.967 1.375 1.563-1.813 1.854-3.646 3.688-5.5 5.5-0.034 0.004-0.055 0.025-0.063 0.063 2.791 0.063 5.583 0.083 8.375 0.063 0.181 0.656 0.306 1.322 0.375 2-4.583 0-9.167 0-13.75 0 0-4.583 0-9.167 0-13.75z"></path>
<path fill="#bacce2" style="fill: var(--color3, #bacce2)" d="M11.719 0.531c0.021-0.052 0.063-0.073 0.125-0.063 0.021 2.792 0 5.584-0.063 8.375-0.038-0.008-0.059-0.029-0.063-0.063 0.083-2.75 0.083-5.5 0-8.25z"></path>
<path fill="#bacce2" style="fill: var(--color3, #bacce2)" d="M20.156 0.531c-0.021 2.761 0 5.511 0.063 8.25-0.004 0.034-0.025 0.055-0.063 0.063-0.083-2.781-0.083-5.552 0-8.313z"></path>
<path fill="#0452b4" style="fill: var(--color4, #0452b4)" d="M11.719 0.531c0.083 2.75 0.083 5.5 0 8.25-1.79-1.821-3.592-3.633-5.406-5.438-0.029-0.037-0.039-0.079-0.031-0.125 1.613-1.275 3.425-2.171 5.438-2.688z"></path>
<path fill="#0452b4" style="fill: var(--color4, #0452b4)" d="M20.156 0.531c0.021 0 0.042 0 0.063 0 2.044 0.522 3.877 1.438 5.5 2.75-1.854 1.813-3.688 3.646-5.5 5.5-0.062-2.739-0.083-5.489-0.063-8.25z"></path>
<path fill="#d80f2b" style="fill: var(--color5, #d80f2b)" d="M26.281 3.719c0.373 0.268 0.706 0.581 1 0.938-2.333 2.375-4.688 4.729-7.063 7.063-0.062-0.614-0.083-1.239-0.063-1.875 2.021-2.063 4.063-4.104 6.125-6.125z"></path>
<path fill="#d80e2b" style="fill: var(--color6, #d80e2b)" d="M4.656 4.656c2.375 2.333 4.729 4.688 7.063 7.063-0.614 0.062-1.239 0.083-1.875 0.063-2.063-2.021-4.104-4.063-6.125-6.125 0.268-0.373 0.581-0.706 0.938-1z"></path>
<path fill="#0452b4" style="fill: var(--color4, #0452b4)" d="M3.219 6.281c0.046-0.008 0.088 0.002 0.125 0.031 1.804 1.815 3.617 3.617 5.438 5.406-2.75 0.083-5.5 0.083-8.25 0 0.517-2.012 1.412-3.825 2.688-5.438z"></path>
<path fill="#0452b4" style="fill: var(--color4, #0452b4)" d="M28.656 6.219c1.311 1.623 2.228 3.456 2.75 5.5-2.75 0.083-5.5 0.083-8.25 0 1.854-1.813 3.688-3.646 5.5-5.5z"></path>
<path fill="#e9b9c2" style="fill: var(--color7, #e9b9c2)" d="M20.156 9.844c-0.020 0.636 0 1.261 0.063 1.875-0.004 0.034-0.025 0.055-0.063 0.063-0.083-0.656-0.083-1.302 0-1.938z"></path>
<path fill="#bfcfe4" style="fill: var(--color8, #bfcfe4)" d="M0.531 11.719c2.75 0.083 5.5 0.083 8.25 0 0.034 0.004 0.055 0.025 0.063 0.063-2.791 0.063-5.583 0.083-8.375 0.063-0.011-0.062 0.010-0.104 0.063-0.125z"></path>
<path fill="#ebbdc5" style="fill: var(--color9, #ebbdc5)" d="M11.719 11.719c0.034 0.004 0.055 0.025 0.063 0.063-0.656 0.083-1.302 0.083-1.938 0 0.636 0.020 1.261-0 1.875-0.063z"></path>
<path fill="#bfcfe4" style="fill: var(--color8, #bfcfe4)" d="M23.156 11.719c2.75 0.083 5.5 0.083 8.25 0 0.052 0.021 0.073 0.063 0.063 0.125-2.792 0.021-5.584 0-8.375-0.063 0.008-0.038 0.029-0.059 0.063-0.063z"></path>
<path fill="#e690a0" style="fill: var(--color10, #e690a0)" d="M13.844 0.094c0.021 0 0.042 0 0.063 0 0 4.604 0 9.208 0 13.813-4.604 0-9.208 0-13.813 0 0-0.021 0-0.042 0-0.063 4.583 0 9.167 0 13.75 0 0-4.583 0-9.167 0-13.75z"></path>
<path fill="#e690a0" style="fill: var(--color10, #e690a0)" opacity="0.999" d="M18.031 0.094c0.021 0 0.042 0 0.063 0 0 4.583 0 9.167 0 13.75 4.583 0 9.167 0 13.75 0 0 0.021 0 0.042 0 0.063-4.604 0-9.208 0-13.813 0 0-4.604 0-9.208 0-13.813z"></path>
<path fill="#efefef" style="fill: var(--color2, #efefef)" opacity="0.998" d="M0.094 18.094c4.583 0 9.167 0 13.75 0 0 4.583 0 9.167 0 13.75-0.677-0.071-1.344-0.196-2-0.375 0.021-2.792 0-5.584-0.063-8.375-0.038 0.008-0.059 0.029-0.063 0.063-1.813 1.854-3.646 3.688-5.5 5.5-0.206-0.122-0.393-0.268-0.563-0.438 2.063-2.021 4.104-4.063 6.125-6.125 0.083-0.636 0.083-1.282 0-1.938-0.038 0.008-0.059 0.029-0.063 0.063-2.375 2.333-4.729 4.688-7.063 7.063-0.551-0.446-1.009-0.967-1.375-1.563 1.813-1.854 3.646-3.688 5.5-5.5 0.034-0.004 0.055-0.025 0.063-0.063-2.791-0.063-5.583-0.083-8.375-0.063-0.181-0.656-0.306-1.322-0.375-2z"></path>
<path fill="#e691a0" style="fill: var(--color11, #e691a0)" opacity="0.999" d="M0.094 18.094c0-0.021 0-0.042 0-0.063 4.604 0 9.208 0 13.813 0 0 4.604 0 9.208 0 13.813-0.021 0-0.042 0-0.063 0 0-4.583 0-9.167 0-13.75-4.583 0-9.167 0-13.75 0z"></path>
<path fill="#e691a0" style="fill: var(--color11, #e691a0)" opacity="0.999" d="M31.844 18.031c0 0.021 0 0.042 0 0.063-4.583 0-9.167 0-13.75 0 0 4.583 0 9.167 0 13.75-0.021 0-0.042 0-0.063 0 0-4.604 0-9.208 0-13.813 4.604 0 9.208 0 13.813 0z"></path>
<path fill="#efefef" style="fill: var(--color2, #efefef)" opacity="0.998" d="M31.844 18.094c-0.069 0.678-0.194 1.344-0.375 2-2.792-0.021-5.584 0-8.375 0.063 0.008 0.038 0.029 0.059 0.063 0.063 1.854 1.813 3.688 3.646 5.5 5.5-0.122 0.206-0.268 0.393-0.438 0.563-2.021-2.063-4.063-4.104-6.125-6.125-0.636-0.083-1.282-0.083-1.938 0 0.008 0.038 0.029 0.059 0.063 0.063 2.333 2.375 4.688 4.729 7.063 7.063-0.446 0.551-0.967 1.009-1.563 1.375-1.854-1.813-3.688-3.646-5.5-5.5-0.004-0.034-0.025-0.055-0.063-0.063-0.063 2.791-0.083 5.583-0.063 8.375-0.656 0.181-1.322 0.306-2 0.375 0-4.583 0-9.167 0-13.75 4.583 0 9.167 0 13.75 0z"></path>
<path fill="#bfcfe3" style="fill: var(--color12, #bfcfe3)" d="M0.469 20.094c2.792-0.021 5.584 0 8.375 0.063-0.008 0.038-0.029 0.059-0.063 0.063-2.75-0.083-5.5-0.083-8.25 0-0.052-0.021-0.073-0.063-0.063-0.125z"></path>
<path fill="#eabdc6" style="fill: var(--color13, #eabdc6)" d="M22.094 20.156c-0.636-0.020-1.261 0-1.875 0.063-0.034-0.004-0.055-0.025-0.063-0.063 0.656-0.083 1.302-0.083 1.938 0z"></path>
<path fill="#bfcfe3" style="fill: var(--color12, #bfcfe3)" d="M31.469 20.094c0.011 0.062-0.010 0.104-0.063 0.125-2.75-0.083-5.5-0.083-8.25 0-0.034-0.004-0.055-0.025-0.063-0.063 2.791-0.063 5.583-0.083 8.375-0.063z"></path>
<path fill="#0553b4" style="fill: var(--color14, #0553b4)" d="M8.781 20.219c-1.854 1.813-3.688 3.646-5.5 5.5-1.312-1.623-2.228-3.456-2.75-5.5 2.75-0.083 5.5-0.083 8.25 0z"></path>
<path fill="#e9b9c2" style="fill: var(--color7, #e9b9c2)" d="M11.719 20.219c0.004-0.034 0.025-0.055 0.063-0.063 0.083 0.656 0.083 1.302 0 1.938 0.020-0.636-0-1.261-0.063-1.875z"></path>
<path fill="#d80f2b" style="fill: var(--color5, #d80f2b)" d="M22.094 20.156c2.063 2.021 4.104 4.063 6.125 6.125-0.268 0.373-0.581 0.706-0.938 1-2.375-2.333-4.729-4.688-7.063-7.063 0.614-0.062 1.239-0.083 1.875-0.063z"></path>
<path fill="#0553b4" style="fill: var(--color14, #0553b4)" d="M23.156 20.219c2.75-0.083 5.5-0.083 8.25 0-0.522 2.044-1.439 3.877-2.75 5.5-1.813-1.854-3.646-3.688-5.5-5.5z"></path>
<path fill="#d80f2b" style="fill: var(--color5, #d80f2b)" d="M11.719 20.219c0.062 0.614 0.083 1.239 0.063 1.875-2.021 2.063-4.063 4.104-6.125 6.125-0.373-0.268-0.706-0.581-1-0.938 2.333-2.375 4.688-4.729 7.063-7.063z"></path>
<path fill="#bacce2" style="fill: var(--color3, #bacce2)" d="M11.719 23.156c0.004-0.034 0.025-0.055 0.063-0.063 0.063 2.791 0.083 5.583 0.063 8.375-0.062 0.011-0.104-0.010-0.125-0.063 0.083-2.75 0.083-5.5 0-8.25z"></path>
<path fill="#bacce2" style="fill: var(--color3, #bacce2)" d="M20.219 23.156c-0.083 2.75-0.083 5.5 0 8.25-0.021 0.052-0.063 0.073-0.125 0.063-0.021-2.792 0-5.584 0.063-8.375 0.038 0.008 0.059 0.029 0.063 0.063z"></path>
<path fill="#0452b4" style="fill: var(--color4, #0452b4)" d="M11.719 23.156c0.083 2.75 0.083 5.5 0 8.25-2.044-0.522-3.877-1.439-5.5-2.75 1.854-1.813 3.688-3.646 5.5-5.5z"></path>
<path fill="#0553b4" style="fill: var(--color14, #0553b4)" d="M20.219 23.156c1.813 1.854 3.646 3.688 5.5 5.5-1.623 1.311-3.456 2.228-5.5 2.75-0.083-2.75-0.083-5.5 0-8.25z"></path>
</symbol>
<symbol id="icon-uk" viewBox="0 0 32 32">
<path fill="#348af2" style="fill: var(--color15, #348af2)" d="M14.531-0.031c0.958 0 1.917 0 2.875 0 4.117 0.433 7.575 2.163 10.375 5.188 0.057 0.162 0.162 0.287 0.313 0.375 2.247 2.578 3.538 5.578 3.875 9 0 0.479 0 0.958 0 1.438-10.667 0-21.333 0-32 0 0-0.479 0-0.958 0-1.438 0.68-5.603 3.451-9.821 8.313-12.656 1.967-1.043 4.050-1.679 6.25-1.906z"></path>
<path fill="#78a6bd" style="fill: var(--color16, #78a6bd)" opacity="0.992" d="M27.781 5.156c0.151 0.088 0.255 0.213 0.313 0.375-0.151-0.088-0.255-0.213-0.313-0.375z"></path>
<path fill="#ffda44" style="fill: var(--color17, #ffda44)" opacity="0.998" d="M-0.031 15.969c10.667 0 21.333 0 32 0 0 0.479 0 0.958 0 1.438-0.68 5.603-3.451 9.822-8.313 12.656-1.967 1.043-4.050 1.679-6.25 1.906-0.958 0-1.917 0-2.875 0-5.603-0.68-9.822-3.451-12.656-8.313-1.043-1.967-1.679-4.050-1.906-6.25 0-0.479 0-0.958 0-1.438z"></path>
</symbol>

<symbol id="icon-mark-1" viewBox="0 0 34 32">
<path fill="#fefefe" style="fill: var(--color1, #fefefe)" d="M-0.19-0.19c11.175 0 22.349 0 33.524 0 0 10.667 0 21.333 0 32-11.175 0-22.349 0-33.524 0 0-10.667 0-21.333 0-32z"></path>
<path fill="#d5f9db" style="fill: var(--color2, #d5f9db)" d="M28.762 8.19c0-0.508 0-1.016 0-1.524-0.729-0.108-1.364 0.019-1.905 0.381-0.254 0-0.508 0-0.762 0 0.602-0.604 1.364-0.985 2.286-1.143 0.551 0.256 0.805 0.7 0.762 1.333-0.011 0.408-0.138 0.725-0.381 0.952z"></path>
<path fill="#73ca80" style="fill: var(--color3, #73ca80)" d="M26.857 7.048c0.54-0.362 1.175-0.489 1.905-0.381 0 0.508 0 1.016 0 1.524-0.254 0.127-0.508 0.254-0.762 0.381 0.157-0.942-0.224-1.45-1.143-1.524z"></path>
<path fill="#94e5a7" style="fill: var(--color4, #94e5a7)" d="M26.095 7.048c-1.15 1.081-2.419 1.97-3.81 2.667-0.762 0.381-1.524 0.762-2.286 1.143 1.657-1.845 3.688-3.115 6.095-3.81z"></path>
<path fill="#a5f2b4" style="fill: var(--color5, #a5f2b4)" d="M28 8.571c-0.29 0.671-0.798 1.052-1.524 1.143 0.29-0.671 0.798-1.052 1.524-1.143z"></path>
<path fill="#87dd94" style="fill: var(--color6, #87dd94)" d="M26.476 9.714c-1.233 1.059-2.376 2.202-3.429 3.429 0-0.254 0-0.508 0-0.762 0.918-1.16 2.061-2.049 3.429-2.667z"></path>
<path fill="#41d758" style="fill: var(--color7, #41d758)" d="M26.095 7.048c0.254 0 0.508 0 0.762 0 0.919 0.074 1.3 0.582 1.143 1.524-0.726 0.091-1.233 0.471-1.524 1.143-1.368 0.618-2.511 1.507-3.429 2.667-0.635 0-1.27 0-1.905 0-0.201 1.041-0.518 2.056-0.952 3.048-0.083-0.548-0.274-1.056-0.571-1.524-0.87 0.512-1.188 0.258-0.952-0.762 1.198-1.193 2.405-2.336 3.619-3.429 1.39-0.697 2.66-1.586 3.81-2.667z"></path>
<path fill="#eefdf2" style="fill: var(--color8, #eefdf2)" d="M7.81 13.524c-0.254 0.254-0.508 0.508-0.762 0.762-0.756-0.006-1.137 0.375-1.143 1.143-0.018 0.586 0.236 0.967 0.762 1.143 0.078 0.833 0.332 1.594 0.762 2.286-0.453-0.451-0.897-0.451-1.333 0-0.189-0.752-0.252-1.513-0.19-2.286-0.381 0-0.762 0-1.143 0 0.173-0.711 0.427-1.409 0.762-2.095-0.097-0.505-0.351-0.886-0.762-1.143 0.998 0.032 2.014 0.095 3.048 0.19z"></path>
<path fill="#e8ffed" style="fill: var(--color9, #e8ffed)" d="M16.952 13.143c-0.635 0.889-1.397 1.651-2.286 2.286 0.127-1.397 0.889-2.159 2.286-2.286z"></path>
<path fill="#7ad686" style="fill: var(--color10, #7ad686)" d="M7.81 13.524c0.932 0.044 1.694 0.425 2.286 1.143 0 0.127 0 0.254 0 0.381-0.908-0.589-1.923-0.843-3.048-0.762 0.254-0.254 0.508-0.508 0.762-0.762z"></path>
<path fill="#8ee19a" style="fill: var(--color11, #8ee19a)" d="M20 10.857c-2.042 2.169-4.074 4.327-6.095 6.476 0.15-0.68 0.403-1.314 0.762-1.905 0.889-0.635 1.651-1.397 2.286-2.286 0.915-0.918 1.931-1.68 3.048-2.286z"></path>
<path fill="#a7e9ac" style="fill: var(--color12, #a7e9ac)" d="M23.048 13.143c-0.578 1.155-1.339 2.171-2.286 3.048 0.392-1.292 1.154-2.308 2.286-3.048z"></path>
<path fill="#84d794" style="fill: var(--color13, #84d794)" d="M7.048 14.286c-0.321 0.716-0.447 1.478-0.381 2.286-0.526-0.176-0.78-0.557-0.762-1.143 0.006-0.768 0.387-1.149 1.143-1.143z"></path>
<path fill="#a8ecae" style="fill: var(--color14, #a8ecae)" d="M20.762 16.19c-0.44 1.133-1.075 2.149-1.905 3.048-0.127 0-0.254 0-0.381 0 0.578-1.155 1.339-2.171 2.286-3.048z"></path>
<path fill="#62d171" style="fill: var(--color15, #62d171)" d="M6.667 16.571c1.161 0.921 2.050 2.064 2.667 3.429 0 0.254 0 0.508 0 0.762-0.508-0.508-1.016-1.016-1.524-1.524 0-0.254-0.127-0.381-0.381-0.381-0.43-0.691-0.684-1.453-0.762-2.286z"></path>
<path fill="#4ad361" style="fill: var(--color16, #4ad361)" d="M13.905 25.714c-0.407 0.356-0.915 0.483-1.524 0.381-0.381-0.254-0.762-0.508-1.143-0.762-0.186-0.57-0.44-1.078-0.762-1.524-0.401-1.026-0.782-2.042-1.143-3.048 0-0.254 0-0.508 0-0.762 0.741-0.308 1.376-0.308 1.905 0-0.637 0.77-0.891 1.659-0.762 2.667 0.762 0 1.524 0 2.286 0 0.054 0.671-0.073 1.306-0.381 1.905 0.22 0.781 0.728 1.162 1.524 1.143z"></path>
<path fill="#43d65a" style="fill: var(--color17, #43d65a)" d="M22.286 9.714c-1.214 1.093-2.421 2.236-3.619 3.429-0.235 1.020 0.082 1.274 0.952 0.762 0.298 0.468 0.488 0.976 0.571 1.524 0.434-0.991 0.752-2.007 0.952-3.048 0.635 0 1.27 0 1.905 0 0 0.254 0 0.508 0 0.762-1.132 0.74-1.894 1.756-2.286 3.048-0.946 0.876-1.708 1.892-2.286 3.048-0.576 0.382-1.21 0.636-1.905 0.762 0 0.762 0 1.524 0 2.286-0.127 0.254-0.254 0.508-0.381 0.762-0.413 0.015-0.794 0.142-1.143 0.381-0.195 0.908-0.576 1.67-1.143 2.286-0.796 0.019-1.304-0.362-1.524-1.143 0.308-0.598 0.435-1.233 0.381-1.905-0.762 0-1.524 0-2.286 0-0.13-1.007 0.124-1.896 0.762-2.667-0.528-0.308-1.163-0.308-1.905 0-0.617-1.365-1.506-2.507-2.667-3.429-0.067-0.808 0.060-1.57 0.381-2.286 1.124-0.081 2.14 0.173 3.048 0.762 0.381 0.635 0.889 1.143 1.524 1.524 0.462 1.573 1.224 1.827 2.286 0.762 2.021-2.149 4.053-4.307 6.095-6.476 0.762-0.381 1.524-0.762 2.286-1.143z"></path>
<path fill="#85df93" style="fill: var(--color18, #85df93)" d="M11.619 16.571c0.501 0.372 1.009 0.753 1.524 1.143 0.26-0.138 0.514-0.265 0.762-0.381-1.062 1.065-1.824 0.811-2.286-0.762z"></path>
<path fill="#eaffee" style="fill: var(--color19, #eaffee)" d="M14.667 15.429c-0.358 0.59-0.612 1.225-0.762 1.905-0.248 0.116-0.502 0.243-0.762 0.381-0.515-0.39-1.023-0.771-1.524-1.143 0-0.127 0-0.254 0-0.381 0.455 0.068 0.9 0.195 1.333 0.381 0.428-0.609 0.999-0.99 1.714-1.143z"></path>
<path fill="#b0f4b9" style="fill: var(--color20, #b0f4b9)" d="M10.095 14.667c0.635 0.381 1.143 0.889 1.524 1.524 0 0.127 0 0.254 0 0.381-0.635-0.381-1.143-0.889-1.524-1.524 0-0.127 0-0.254 0-0.381z"></path>
<path fill="#5bd06b" style="fill: var(--color21, #5bd06b)" d="M18.476 19.238c-0.66 1.032-1.295 2.048-1.905 3.048 0-0.762 0-1.524 0-2.286 0.694-0.126 1.329-0.38 1.905-0.762z"></path>
<path fill="#caf8cf" style="fill: var(--color22, #caf8cf)" d="M7.81 19.238c0.508 0.508 1.016 1.016 1.524 1.524 0.361 1.006 0.742 2.022 1.143 3.048-1.494-1.126-2.383-2.65-2.667-4.571z"></path>
<path fill="#e5fde6" style="fill: var(--color23, #e5fde6)" d="M18.476 19.238c0.127 0 0.254 0 0.381 0 0.11 1.524-0.461 2.667-1.714 3.429-0.629 1.377-1.201 2.774-1.714 4.19-0.954 0.349-1.843 0.349-2.667 0 0.492 0.090 0.873-0.037 1.143-0.381 1.040-0.932 1.802-2.075 2.286-3.429 0.127-0.254 0.254-0.508 0.381-0.762 0.61-1 1.245-2.015 1.905-3.048z"></path>
<path fill="#adecb4" style="fill: var(--color24, #adecb4)" d="M11.238 25.333c0.381 0.254 0.762 0.508 1.143 0.762 0.407 0.356 0.915 0.483 1.524 0.381-0.27 0.344-0.651 0.471-1.143 0.381-0.889-0.127-1.397-0.635-1.524-1.524z"></path>
<path fill="#5dcc72" style="fill: var(--color25, #5dcc72)" d="M16.19 23.048c-0.484 1.354-1.245 2.497-2.286 3.429-0.609 0.102-1.117-0.025-1.524-0.381 0.609 0.102 1.117-0.025 1.524-0.381 0.567-0.616 0.948-1.378 1.143-2.286 0.349-0.239 0.73-0.366 1.143-0.381z"></path>
</symbol>


<symbol id="icon-mark-2" viewBox="0 0 37 32">
<path fill="#fefefe" style="fill: var(--color1, #fefefe)" d="M-0.216-0.216c12.252 0 24.505 0 36.757 0 0 10.667 0 21.333 0 32-12.252 0-24.505 0-36.757 0 0-10.667 0-21.333 0-32z"></path>
<path fill="#ebfbf0" style="fill: var(--color26, #ebfbf0)" d="M30.054 8.865c0-0.144 0-0.288 0-0.432 0.269-0.487 0.629-0.92 1.081-1.297 0.324-0.491 0.252-0.923-0.216-1.297-0.723 0.686-1.588 0.974-2.595 0.865 1.226-0.988 2.667-1.565 4.324-1.73 0.148 1.952-0.717 3.249-2.595 3.892z"></path>
<path fill="#80d38a" style="fill: var(--color27, #80d38a)" d="M30.054 8.432c-0.144 0-0.288 0-0.432 0 0.013-0.431-0.203-0.72-0.649-0.865-0.678 0.586-1.47 0.875-2.378 0.865 0.709-0.421 1.285-0.997 1.73-1.73 1.006 0.109 1.871-0.179 2.595-0.865 0.468 0.374 0.54 0.806 0.216 1.297-0.452 0.378-0.812 0.81-1.081 1.297z"></path>
<path fill="#97e49d" style="fill: var(--color28, #97e49d)" d="M26.595 8.432c-0.205 0.608-0.637 0.896-1.297 0.865 0.205-0.608 0.637-0.896 1.297-0.865z"></path>
<path fill="#abf0bd" style="fill: var(--color29, #abf0bd)" d="M29.622 8.432c0.144 0 0.288 0 0.432 0 0 0.144 0 0.288 0 0.432-0.385 0.264-0.818 0.408-1.297 0.432 0.144-0.432 0.432-0.721 0.865-0.865z"></path>
<path fill="#80da94" style="fill: var(--color30, #80da94)" d="M25.297 9.297c-0.733 1.021-1.597 1.886-2.595 2.595-0.288 0-0.577 0-0.865 0 1.029-1.028 2.182-1.893 3.459-2.595z"></path>
<path fill="#a6eeb2" style="fill: var(--color31, #a6eeb2)" d="M28.757 9.297c-1.009 1.874-2.45 3.315-4.324 4.324 1.297-1.586 2.739-3.027 4.324-4.324z"></path>
<path fill="#f1fdeb" style="fill: var(--color32, #f1fdeb)" d="M8 14.486c-0.577-0.144-1.153-0.288-1.73-0.432-0.668-0.611-1.388-0.756-2.162-0.432 0.154 0.442 0.442 0.73 0.865 0.865 0 0.288 0 0.577 0 0.865-1.124-0.815-1.556-1.969-1.297-3.459 1.057 0.952 2.354 1.457 3.892 1.514 0.325 0.29 0.47 0.65 0.432 1.081z"></path>
<path fill="#78d485" style="fill: var(--color33, #78d485)" d="M21.838 11.892c0 0.577-0.288 0.865-0.865 0.865 0-0.144 0-0.288 0-0.432 0.148-0.362 0.436-0.507 0.865-0.432z"></path>
<path fill="#46d55b" style="fill: var(--color34, #46d55b)" d="M29.622 8.432c-0.432 0.144-0.721 0.432-0.865 0.865-1.586 1.297-3.027 2.739-4.324 4.324-1.297-0.144-1.874 0.432-1.73 1.73-0.144 0.288-0.288 0.577-0.432 0.865-0.731 0.154-1.163 0.587-1.297 1.297-1.586 0.721-2.739 1.874-3.459 3.459-0.865 0.721-1.73 1.441-2.595 2.162-1.248-0.381-2.401-0.958-3.459-1.73 0-0.577-0.288-0.865-0.865-0.865-0.432-0.577-0.865-1.153-1.297-1.73 0-0.865-0.432-1.297-1.297-1.297-0.288-0.144-0.577-0.288-0.865-0.432 0-0.288 0-0.577 0-0.865 0.648-0.43 1.369-0.43 2.162 0 0.605 0.601 1.326 1.033 2.162 1.297 0.288 0.144 0.577 0.288 0.865 0.432 0.247 1.186 0.968 1.547 2.162 1.081 0.809-0.882 1.674-1.675 2.595-2.378 0.281 0.131 0.569 0.276 0.865 0.432 1.32-2.017 2.906-3.747 4.757-5.189 0.997-0.709 1.862-1.574 2.595-2.595 0.66 0.032 1.093-0.257 1.297-0.865 0.908 0.010 1.701-0.278 2.378-0.865 0.445 0.145 0.662 0.434 0.649 0.865z"></path>
<path fill="#8ad39d" style="fill: var(--color35, #8ad39d)" d="M6.27 14.054c-0.558-0.103-0.991 0.041-1.297 0.432-0.423-0.134-0.711-0.423-0.865-0.865 0.774-0.323 1.495-0.179 2.162 0.432z"></path>
<path fill="#64cf7c" style="fill: var(--color36, #64cf7c)" d="M24.432 13.622c-0.288 0.432-0.577 0.865-0.865 1.297-0.288 0.144-0.577 0.288-0.865 0.432-0.144-1.297 0.432-1.874 1.73-1.73z"></path>
<path fill="#97e7a6" style="fill: var(--color37, #97e7a6)" d="M19.676 13.622c-0.577 0.865-1.297 1.586-2.162 2.162 0.288-1.153 1.009-1.874 2.162-2.162z"></path>
<path fill="#effef4" style="fill: var(--color38, #effef4)" d="M20.973 12.324c0 0.144 0 0.288 0 0.432-0.523 0.187-0.955 0.475-1.297 0.865-1.153 0.288-1.874 1.009-2.162 2.162-1.267 0.688-2.421 1.553-3.459 2.595-0.385-0.264-0.818-0.408-1.297-0.432-0.144-0.288-0.288-0.577-0.432-0.865 0.708 0.31 1.428 0.383 2.162 0.216-0.945-0.261-1.017-0.766-0.216-1.514 0.796 0.576 1.012 0.504 0.649-0.216 0.432-0.432 0.865-0.865 1.297-1.297 1.54-0.743 3.125-1.392 4.757-1.946z"></path>
<path fill="#b7f3bc" style="fill: var(--color39, #b7f3bc)" d="M4.973 14.486c0.721 0.577 1.441 1.153 2.162 1.73 0 0.288 0 0.577 0 0.865-0.288-0.144-0.577-0.288-0.865-0.432-0.288-0.577-0.721-1.009-1.297-1.297 0-0.288 0-0.577 0-0.865z"></path>
<path fill="#60d174" style="fill: var(--color40, #60d174)" d="M4.973 14.486c0.307-0.391 0.739-0.535 1.297-0.432 0.577 0.144 1.153 0.288 1.73 0.432 0 0.577 0.288 0.865 0.865 0.865 0.144 0.288 0.288 0.577 0.432 0.865-0.793-0.43-1.514-0.43-2.162 0-0.721-0.577-1.441-1.153-2.162-1.73z"></path>
<path fill="#c1f4c8" style="fill: var(--color41, #c1f4c8)" d="M8.865 15.351c0.66-0.032 1.093 0.257 1.297 0.865-0.288 0-0.577 0-0.865 0-0.144-0.288-0.288-0.577-0.432-0.865z"></path>
<path fill="#4ece63" style="fill: var(--color42, #4ece63)" d="M21.838 11.892c0.288 0 0.577 0 0.865 0-1.851 1.443-3.436 3.172-4.757 5.189-0.296-0.157-0.584-0.301-0.865-0.432 0.144-0.288 0.288-0.577 0.432-0.865 0.865-0.577 1.586-1.297 2.162-2.162 0.342-0.39 0.774-0.678 1.297-0.865 0.577 0 0.865-0.288 0.865-0.865z"></path>
<path fill="#cafbd6" style="fill: var(--color43, #cafbd6)" d="M23.568 14.919c0 0.865-0.432 1.297-1.297 1.297 0.144-0.288 0.288-0.577 0.432-0.865 0.288-0.144 0.577-0.288 0.865-0.432z"></path>
<path fill="#71d580" style="fill: var(--color44, #71d580)" d="M9.297 16.216c0.288 0 0.577 0 0.865 0 0.432 0.288 0.865 0.577 1.297 0.865 0 0.144 0 0.288 0 0.432-0.836-0.264-1.557-0.696-2.162-1.297z"></path>
<path fill="#c3f9d2" style="fill: var(--color45, #c3f9d2)" d="M22.27 16.216c-0.134 0.711-0.567 1.143-1.297 1.297 0.134-0.711 0.567-1.143 1.297-1.297z"></path>
<path fill="#bbf7c2" style="fill: var(--color46, #bbf7c2)" d="M11.459 17.514c0-0.144 0-0.288 0-0.432 0.288 0 0.577 0 0.865 0 0.144 0.288 0.288 0.577 0.432 0.865-0.144 0-0.288 0-0.432 0-0.288-0.144-0.577-0.288-0.865-0.432z"></path>
<path fill="#7adc8b" style="fill: var(--color47, #7adc8b)" d="M17.514 15.784c-0.144 0.288-0.288 0.577-0.432 0.865-0.921 0.704-1.786 1.496-2.595 2.378-1.194 0.466-1.915 0.105-2.162-1.081 0.144 0 0.288 0 0.432 0 0.312 0.814 0.744 0.958 1.297 0.432 1.039-1.042 2.192-1.907 3.459-2.595z"></path>
<path fill="#72d282" style="fill: var(--color48, #72d282)" d="M8 17.514c0.865 0 1.297 0.432 1.297 1.297-0.288-0.144-0.577-0.288-0.865-0.432-0.144-0.288-0.288-0.577-0.432-0.865z"></path>
<path fill="#e2fee9" style="fill: var(--color49, #e2fee9)" d="M6.27 16.649c0.288 0.144 0.577 0.288 0.865 0.432s0.577 0.288 0.865 0.432c0.144 0.288 0.288 0.577 0.432 0.865-1.335 0.131-2.056-0.445-2.162-1.73z"></path>
<path fill="#c2f9cb" style="fill: var(--color50, #c2f9cb)" d="M12.757 17.946c0.48 0.025 0.912 0.169 1.297 0.432-0.553 0.526-0.986 0.381-1.297-0.432z"></path>
<path fill="#9bebaa" style="fill: var(--color51, #9bebaa)" d="M20.973 17.514c-1.009 1.297-2.162 2.45-3.459 3.459 0.721-1.586 1.874-2.739 3.459-3.459z"></path>
<path fill="#d6fddd" style="fill: var(--color52, #d6fddd)" d="M8.432 18.378c0.288 0.144 0.577 0.288 0.865 0.432 0.432 0.577 0.865 1.153 1.297 1.73-1.297-0.144-2.018-0.865-2.162-2.162z"></path>
<path fill="#9eecab" style="fill: var(--color53, #9eecab)" d="M10.595 20.541c0.577 0 0.865 0.288 0.865 0.865-0.432-0.144-0.721-0.432-0.865-0.865z"></path>
<path fill="#99e0a3" style="fill: var(--color54, #99e0a3)" d="M11.459 21.405c1.059 0.772 2.212 1.348 3.459 1.73 0 0.144 0 0.288 0 0.432-1.020 0.107-1.885-0.181-2.595-0.865-0.288-0.432-0.577-0.865-0.865-1.297z"></path>
<path fill="#e9fdf0" style="fill: var(--color55, #e9fdf0)" d="M12.324 22.703c0.71 0.684 1.575 0.972 2.595 0.865 0.288 0 0.577 0 0.865 0-0.162 1.059-0.81 1.492-1.946 1.297-1.615-0.073-2.12-0.794-1.514-2.162z"></path>
<path fill="#d4fbd8" style="fill: var(--color56, #d4fbd8)" d="M17.514 20.973c-0.396 0.975-0.972 1.84-1.73 2.595-0.288 0-0.577 0-0.865 0 0-0.144 0-0.288 0-0.432 0.865-0.721 1.73-1.441 2.595-2.162z"></path>
</symbol>


<symbol id="icon-mark-3" viewBox="0 0 40 32">
<path  d="M31.657 0.501c0.134 0.051 0.248 0.139 0.343 0.264 2.199 2.744 4.378 5.503 6.537 8.277 0.052 0.066 0.069 0.137 0.053 0.211-2.333 1.382-4.679 2.744-7.038 4.086-1.090 0.773-2.179 1.546-3.269 2.32-2.761 2.182-5.538 4.343-8.329 6.484-0.852 0.782-1.705 1.564-2.557 2.346-1.834 2.087-3.617 4.214-5.351 6.379-0.046 0.057-0.098 0.066-0.158 0.026-1.248-1.652-2.584-3.234-4.007-4.745-0.806-0.613-1.597-1.245-2.372-1.898-0.975-0.602-1.942-1.217-2.9-1.845-0.449-0.251-0.905-0.488-1.371-0.712-0.060-0.119-0.069-0.242-0.026-0.369 0.547-2.579 1.075-5.162 1.582-7.75 0.026-0.026 0.053-0.053 0.079-0.079 0.181 0.019 0.356 0.072 0.527 0.158 0.527 0.264 1.054 0.527 1.582 0.791 1.010 1.010 2.021 2.021 3.031 3.031 0.454 0.761 0.937 1.499 1.45 2.214 1.888-1.932 3.769-3.874 5.641-5.825 1.898-1.792 3.796-3.585 5.694-5.377 1.652-1.3 3.304-2.601 4.956-3.901 1.981-1.35 3.949-2.712 5.904-4.086z"></path>
</symbol>

<symbol id="icon-mark-4" viewBox="0 0 32 32">
<path d="M29.125 2.688c0.164 0.11 0.209 0.195 0.313 0.375 0.043 0.331-0.068 0.538-0.242 0.809-0.026 0.041-0.051 0.082-0.077 0.124-0.223 0.356-0.456 0.704-0.691 1.052-0.21 0.311-0.414 0.626-0.619 0.941-0.081 0.124-0.162 0.248-0.242 0.372-0.041 0.064-0.083 0.127-0.126 0.193-0.219 0.337-0.439 0.673-0.659 1.009-0.49 0.75-0.98 1.5-1.469 2.25-0.534 0.819-1.068 1.638-1.604 2.456-0.445 0.681-0.89 1.362-1.334 2.044-0.534 0.819-1.068 1.638-1.604 2.456-0.445 0.681-0.89 1.362-1.334 2.044-0.534 0.819-1.068 1.638-1.604 2.456-0.291 0.445-0.582 0.891-0.873 1.337-0.058 0.088-0.058 0.088-0.116 0.178-0.191 0.293-0.382 0.586-0.572 0.879-0.411 0.632-0.824 1.263-1.24 1.892-0.050 0.075-0.099 0.15-0.149 0.225-0.069 0.105-0.139 0.21-0.208 0.315-0.040 0.060-0.080 0.12-0.121 0.183-0.161 0.221-0.283 0.383-0.546 0.469-0.289 0.006-0.46-0.087-0.676-0.276-0.224-0.218-0.428-0.453-0.632-0.69-0.183-0.206-0.371-0.407-0.559-0.608-0.383-0.409-0.763-0.821-1.141-1.234-0.113-0.124-0.227-0.247-0.34-0.371-0.028-0.031-0.056-0.062-0.085-0.093-0.212-0.231-0.424-0.462-0.637-0.692-0.384-0.415-0.765-0.832-1.147-1.249-0.357-0.39-0.714-0.779-1.073-1.167-0.237-0.256-0.473-0.514-0.708-0.771-0.211-0.23-0.422-0.46-0.634-0.689-0.269-0.291-0.536-0.582-0.803-0.874-0.211-0.23-0.422-0.46-0.634-0.689-0.268-0.29-0.536-0.582-0.803-0.873-0.182-0.199-0.366-0.398-0.549-0.596-0.095-0.103-0.19-0.206-0.284-0.31-0.109-0.118-0.219-0.232-0.332-0.346-0.258-0.264-0.415-0.464-0.426-0.843 0.031-0.199 0.124-0.305 0.27-0.438 0.191-0.095 0.351-0.075 0.563-0.063 0.188 0.064 0.188 0.064 0.378 0.156 0.108 0.052 0.108 0.052 0.219 0.104 0.078 0.038 0.157 0.076 0.235 0.115 0.083 0.040 0.165 0.079 0.248 0.118 0.175 0.084 0.35 0.168 0.525 0.252 0.401 0.193 0.803 0.382 1.206 0.57 0.135 0.063 0.27 0.127 0.405 0.191 0.622 0.293 1.246 0.584 1.87 0.873 0.531 0.246 1.061 0.495 1.59 0.744 0.135 0.064 0.27 0.127 0.405 0.191 0.089 0.042 0.178 0.084 0.267 0.126 0.044 0.021 0.088 0.041 0.133 0.062 0.259 0.122 0.519 0.245 0.777 0.368 0.161 0.076 0.322 0.152 0.483 0.228 0.11 0.052 0.22 0.105 0.331 0.158 0.475 0.235 0.475 0.235 0.99 0.306 0.158-0.095 0.158-0.095 0.281-0.246 0.043-0.047 0.086-0.094 0.131-0.142 0.083-0.096 0.165-0.192 0.248-0.288 0.306-0.355 0.633-0.683 0.968-1.011 0.245-0.242 0.476-0.491 0.701-0.752 0.183-0.207 0.381-0.399 0.578-0.592 0.355-0.349 0.355-0.349 0.688-0.719 0.252-0.3 0.536-0.569 0.814-0.844 0.194-0.193 0.384-0.384 0.561-0.593 0.252-0.3 0.536-0.569 0.814-0.844 0.194-0.193 0.384-0.384 0.561-0.593 0.252-0.3 0.536-0.569 0.814-0.844 0.194-0.193 0.384-0.384 0.561-0.593 0.252-0.3 0.536-0.569 0.814-0.844 0.194-0.193 0.384-0.384 0.561-0.593 0.25-0.297 0.53-0.564 0.807-0.836 0.197-0.194 0.386-0.39 0.566-0.6 0.266-0.309 0.557-0.591 0.848-0.877 0.245-0.242 0.476-0.491 0.701-0.752 0.183-0.207 0.381-0.399 0.578-0.592 0.355-0.349 0.355-0.349 0.688-0.719 0.252-0.299 0.535-0.568 0.813-0.843 0.243-0.241 0.477-0.485 0.694-0.75 0.266-0.29 0.514-0.367 0.9-0.282z"></path>
</symbol>
<symbol id="icon-mark-5" viewBox="0 0 32 32">
<path d="M27.705 3.064c0.246 0.006 0.491 0.008 0.737 0.008 0.157 0.002 0.314 0.004 0.47 0.006 0.11 0.001 0.11 0.001 0.222 0.002 0.503 0.015 0.503 0.015 0.754 0.164 0.183 0.215 0.189 0.418 0.174 0.693-0.149 0.391-0.55 0.688-0.861 0.955-0.25 0.218-0.487 0.447-0.721 0.682-0.041 0.041-0.083 0.082-0.125 0.125-0.086 0.086-0.173 0.173-0.259 0.26-0.131 0.131-0.262 0.262-0.393 0.393-0.085 0.085-0.169 0.169-0.254 0.254-0.039 0.038-0.077 0.077-0.117 0.116-0.234 0.235-0.455 0.477-0.671 0.728-0.151 0.173-0.308 0.34-0.465 0.508-0.283 0.304-0.551 0.618-0.811 0.942-0.134 0.163-0.273 0.32-0.415 0.476-0.294 0.323-0.569 0.66-0.844 1-0.064 0.078-0.128 0.157-0.192 0.235-0.626 0.766-1.237 1.543-1.838 2.328-0.070 0.091-0.14 0.182-0.21 0.273-0.487 0.635-0.97 1.271-1.43 1.926-0.121 0.171-0.245 0.34-0.368 0.51-0.327 0.451-0.65 0.904-0.97 1.36-0.049 0.070-0.049 0.070-0.099 0.142-0.609 0.872-1.207 1.752-1.803 2.634-0.078 0.115-0.156 0.231-0.234 0.346-0.472 0.696-0.933 1.397-1.379 2.109-0.206 0.329-0.419 0.653-0.633 0.976-0.359 0.547-0.701 1.102-1.035 1.664-0.187 0.315-0.381 0.626-0.575 0.937-0.368 0.59-0.723 1.188-1.075 1.788-0.642 1.092-0.642 1.092-0.91 1.27-0.428 0.049-0.428 0.049-0.684-0.126-0.225-0.201-0.357-0.441-0.503-0.702-0.354-0.612-0.739-1.199-1.133-1.785-0.029-0.043-0.058-0.086-0.088-0.131-0.142-0.211-0.283-0.422-0.425-0.633-0.167-0.248-0.332-0.496-0.497-0.744-0.226-0.34-0.454-0.679-0.685-1.016-0.034-0.049-0.067-0.098-0.102-0.149-0.358-0.521-0.721-1.039-1.084-1.556-0.111-0.158-0.221-0.317-0.332-0.475-0.385-0.552-0.774-1.102-1.169-1.647-0.226-0.312-0.45-0.627-0.672-0.942-0.428-0.609-0.864-1.211-1.301-1.813-0.076-0.105-0.153-0.211-0.229-0.316-0.072-0.099-0.144-0.199-0.216-0.298-0.032-0.045-0.065-0.089-0.098-0.135-0.043-0.059-0.043-0.059-0.087-0.119-0.157-0.227-0.167-0.387-0.131-0.662 0.311-0.463 0.781-0.858 1.174-1.252 0.115-0.116 0.23-0.233 0.345-0.349 0.074-0.074 0.148-0.148 0.222-0.223 0.034-0.035 0.068-0.069 0.103-0.105 0.185-0.184 0.34-0.315 0.594-0.384 0.287 0.017 0.462 0.099 0.695 0.262 0.098 0.068 0.098 0.068 0.199 0.137 0.077 0.054 0.154 0.109 0.231 0.163 0.092 0.064 0.184 0.128 0.276 0.193 0.211 0.147 0.421 0.294 0.631 0.442 0.353 0.248 0.707 0.494 1.061 0.74 0.452 0.314 0.904 0.629 1.355 0.945 0.050 0.035 0.1 0.070 0.152 0.106 0.269 0.188 0.538 0.377 0.806 0.566 0.057 0.040 0.113 0.080 0.172 0.121 0.108 0.076 0.217 0.152 0.325 0.229 0.236 0.166 0.47 0.327 0.721 0.471 0.039-0.051 0.077-0.101 0.117-0.154 0.348-0.456 0.705-0.904 1.071-1.346 0.091-0.112 0.182-0.224 0.273-0.336 0.291-0.356 0.588-0.707 0.886-1.058 0.092-0.108 0.183-0.216 0.275-0.324 0.341-0.402 0.688-0.797 1.049-1.182 0.163-0.175 0.323-0.352 0.48-0.532 0.218-0.25 0.442-0.495 0.67-0.737 0.040-0.043 0.081-0.086 0.122-0.13 0.297-0.316 0.602-0.623 0.91-0.928 0.214-0.212 0.415-0.431 0.61-0.66 0.256-0.292 0.535-0.561 0.831-0.813 0.237-0.204 0.456-0.422 0.676-0.645 0.25-0.252 0.501-0.497 0.772-0.727 0.144-0.125 0.284-0.255 0.423-0.385 0.333-0.311 0.672-0.608 1.028-0.894 0.218-0.178 0.429-0.363 0.64-0.549 0.406-0.355 0.824-0.692 1.251-1.021 0.1-0.077 0.2-0.155 0.3-0.234 0.384-0.299 0.774-0.591 1.167-0.878 0.042-0.031 0.084-0.062 0.128-0.094 0.092-0.067 0.185-0.131 0.279-0.195 0.128-0.089 0.243-0.18 0.362-0.28 0.731-0.574 1.487-0.547 2.386-0.523z"></path>
</symbol>
<symbol id="icon-mark-6" viewBox="0 0 32 32">
<path d="M30.375 1.063c0.273 0.125 0.45 0.281 0.563 0.563 0.066 0.358 0.015 0.634-0.166 0.948-0.034 0.060-0.068 0.12-0.103 0.182-0.035 0.060-0.070 0.12-0.106 0.182-0.061 0.11-0.122 0.219-0.184 0.329-0.064 0.113-0.128 0.226-0.191 0.339-0.035 0.062-0.070 0.123-0.106 0.187-0.286 0.505-0.578 1.007-0.871 1.508-0.388 0.663-0.772 1.329-1.155 1.994-0.195 0.339-0.391 0.678-0.587 1.018-0.078 0.135-0.156 0.271-0.234 0.406-0.781 1.354-1.563 2.708-2.344 4.063-0.039 0.067-0.077 0.134-0.117 0.203-0.078 0.135-0.156 0.271-0.234 0.406-0.196 0.34-0.392 0.68-0.588 1.020-0.414 0.718-0.829 1.434-1.247 2.15-0.385 0.66-0.767 1.322-1.148 1.985-0.195 0.339-0.391 0.678-0.587 1.018-0.078 0.135-0.156 0.271-0.234 0.406-1.094 1.896-2.188 3.792-3.281 5.688-0.039 0.067-0.077 0.134-0.117 0.203-0.078 0.135-0.156 0.271-0.234 0.406-0.196 0.34-0.392 0.68-0.588 1.020-0.195 0.338-0.389 0.675-0.585 1.013-0.079 0.136-0.157 0.272-0.236 0.409-0.116 0.202-0.233 0.404-0.35 0.606-0.052 0.090-0.052 0.090-0.104 0.182-0.726 1.251-0.726 1.251-1.302 1.443-0.136 0.014-0.273 0.022-0.41 0.027-0.072 0.004-0.145 0.008-0.219 0.011-0.454-0.072-0.809-0.309-1.093-0.668-0.068-0.095-0.135-0.191-0.2-0.288-0.075-0.106-0.15-0.212-0.225-0.318-0.038-0.054-0.075-0.108-0.114-0.164-0.182-0.259-0.371-0.513-0.559-0.768-0.073-0.099-0.146-0.198-0.219-0.298-0.194-0.262-0.389-0.524-0.585-0.784-0.383-0.509-0.761-1.023-1.139-1.536-0.183-0.249-0.366-0.497-0.549-0.745-0.073-0.099-0.146-0.198-0.219-0.297-0.036-0.049-0.072-0.098-0.109-0.148-0.328-0.445-0.328-0.445-0.438-0.594-0.073-0.099-0.146-0.198-0.218-0.296-0.184-0.25-0.368-0.499-0.552-0.749-0.34-0.463-0.682-0.925-1.027-1.384-0.383-0.509-0.761-1.023-1.139-1.536-0.183-0.249-0.366-0.497-0.549-0.745-0.073-0.099-0.146-0.198-0.219-0.297-0.036-0.049-0.072-0.098-0.109-0.148-0.328-0.445-0.328-0.445-0.438-0.594-0.073-0.099-0.146-0.198-0.218-0.296-0.184-0.25-0.368-0.499-0.552-0.749-0.074-0.101-0.148-0.201-0.222-0.302-0.036-0.049-0.072-0.098-0.109-0.149-0.208-0.282-0.418-0.564-0.629-0.844-0.122-0.162-0.243-0.325-0.364-0.487-0.067-0.090-0.137-0.178-0.207-0.265-0.231-0.305-0.297-0.545-0.274-0.93 0.054-0.296 0.193-0.459 0.415-0.65 0.333-0.133 0.59-0.128 0.919-0.001 0.236 0.115 0.466 0.239 0.695 0.368 0.050 0.028 0.1 0.056 0.151 0.084 0.295 0.166 0.59 0.333 0.884 0.5 0.426 0.242 0.856 0.48 1.285 0.716 0.038 0.021 0.076 0.042 0.115 0.063 0.194 0.107 0.388 0.213 0.582 0.32 0.383 0.21 0.765 0.421 1.147 0.632 0.038 0.021 0.075 0.041 0.114 0.063 0.543 0.3 1.086 0.601 1.628 0.902 0.281 0.156 0.562 0.313 0.844 0.469 0.059 0.032 0.059 0.032 0.118 0.066 0.245 0.136 0.49 0.272 0.736 0.408 0.078 0.043 0.156 0.086 0.234 0.13 0.177 0.098 0.354 0.196 0.532 0.292 0.124 0.068 0.248 0.137 0.371 0.207 0.308 0.175 0.308 0.175 0.652 0.187 0.201-0.121 0.347-0.253 0.51-0.422 0.030-0.031 0.060-0.061 0.090-0.093 0.205-0.214 0.402-0.434 0.594-0.66 0.136-0.154 0.282-0.296 0.429-0.44 0.115-0.117 0.221-0.238 0.328-0.361 0.174-0.202 0.357-0.39 0.547-0.576 0.115-0.117 0.221-0.238 0.328-0.361 0.174-0.202 0.357-0.39 0.547-0.576 0.115-0.117 0.221-0.238 0.328-0.361 0.174-0.202 0.357-0.39 0.547-0.576 0.115-0.117 0.221-0.238 0.328-0.361 0.14-0.163 0.284-0.318 0.438-0.469 0.152-0.149 0.295-0.303 0.434-0.465 0.19-0.221 0.392-0.425 0.599-0.629 0.159-0.162 0.306-0.332 0.454-0.504 0.138-0.156 0.287-0.301 0.435-0.447 0.115-0.117 0.221-0.238 0.328-0.361 0.174-0.202 0.357-0.39 0.547-0.576 0.115-0.117 0.221-0.238 0.328-0.361 0.174-0.202 0.357-0.39 0.547-0.576 0.115-0.117 0.221-0.238 0.328-0.361 0.174-0.202 0.357-0.39 0.547-0.576 0.115-0.117 0.221-0.238 0.328-0.361 0.174-0.202 0.357-0.39 0.547-0.576 0.115-0.117 0.221-0.238 0.328-0.361 0.174-0.202 0.357-0.39 0.547-0.576 0.115-0.117 0.221-0.238 0.328-0.361 0.174-0.202 0.357-0.39 0.547-0.576 0.115-0.117 0.221-0.238 0.328-0.361 0.174-0.202 0.357-0.39 0.547-0.576 0.115-0.117 0.221-0.238 0.328-0.361 0.174-0.202 0.357-0.39 0.547-0.576 0.115-0.117 0.221-0.238 0.328-0.361 0.174-0.202 0.357-0.39 0.547-0.576 0.115-0.117 0.221-0.238 0.328-0.361 0.174-0.202 0.357-0.39 0.547-0.576 0.153-0.156 0.294-0.322 0.437-0.488 0.14-0.158 0.29-0.305 0.441-0.452 0.14-0.143 0.265-0.297 0.39-0.453 0.267-0.271 0.608-0.272 0.966-0.218z"></path>
</symbol>

</defs>
</svg>
