<?xml version="1.0" encoding="UTF-8"?>
<!DOCTYPE svg PUBLIC "-//W3C//DTD SVG 1.1//EN" "http://www.w3.org/Graphics/SVG/1.1/DTD/svg11.dtd">
<svg xmlns="http://www.w3.org/2000/svg" version="1.1" width="755px" height="607px" style="shape-rendering:geometricPrecision; text-rendering:geometricPrecision; image-rendering:optimizeQuality; fill-rule:evenodd; clip-rule:evenodd" xmlns:xlink="http://www.w3.org/1999/xlink">
<g><path style="opacity:0.996" fill="#21b04b" d="M 600.5,9.5 C 603.044,10.4679 605.211,12.1345 607,14.5C 648.714,66.5459 690.048,118.879 731,171.5C 731.982,172.759 732.315,174.092 732,175.5C 687.746,201.712 643.246,227.545 598.5,253C 577.833,267.667 557.167,282.333 536.5,297C 484.12,338.382 431.453,379.382 378.5,420C 362.333,434.833 346.167,449.667 330,464.5C 295.215,504.093 261.382,544.426 228.5,585.5C 227.635,586.583 226.635,586.749 225.5,586C 201.819,554.662 176.486,524.662 149.5,496C 134.211,484.38 119.211,472.38 104.5,460C 85.9974,448.583 67.6641,436.916 49.5,425C 40.9905,420.245 32.3238,415.745 23.5,411.5C 22.3526,409.235 22.1859,406.902 23,404.5C 33.3836,355.582 43.3836,306.582 53,257.5C 53.5,257 54,256.5 54.5,256C 57.9243,256.361 61.2577,257.361 64.5,259C 74.5,264 84.5,269 94.5,274C 113.667,293.167 132.833,312.333 152,331.5C 160.61,345.928 169.777,359.928 179.5,373.5C 215.321,336.845 250.988,300.012 286.5,263C 322.5,229 358.5,195 394.5,161C 425.833,136.333 457.167,111.667 488.5,87C 526.074,61.3909 563.407,35.5575 600.5,9.5 Z"/></g>
</svg>
