<!-- <?xml version="1.0" encoding="UTF-8"?>
<svg version="1.1" xmlns="http://www.w3.org/2000/svg" width="40" height="40" fill="none" stroke="none" transform="translate(0.000000,163.000000)">
<path   d="M0 0 C3.93283363 0.0999018 7.86068195 0.12303945 11.79467773 0.13427734 C14.30319467 0.1624154 16.81166828 0.19481198 19.32006836 0.23193359 C21.07627754 0.2480217 21.07627754 0.2480217 22.8679657 0.26443481 C30.91545627 0.50068691 30.91545627 0.50068691 34.93847656 2.8840332 C37.86014578 6.32216518 37.9679408 9.58023481 37.71459961 13.97412109 C35.33368946 20.22401024 28.90896041 24.98016328 23.93359375 29.25170898 C19.9319107 32.74014435 16.14480609 36.39876713 12.39819336 40.15771484 C11.73803726 40.81691422 11.07788116 41.47611359 10.39772034 42.1552887 C9.01424455 43.53808944 7.63200878 44.92213185 6.25097656 46.30737305 C4.15728292 48.40642452 2.05830087 50.50008049 -0.04125977 52.59326172 C-1.3950961 53.94775895 -2.74862214 55.30256641 -4.10180664 56.65771484 C-4.71866837 57.27255234 -5.33553009 57.88738983 -5.97108459 58.52085876 C-9.7075399 62.27713242 -13.25726601 66.15010093 -16.7144928 70.1651001 C-19.12421081 72.94007585 -21.64628661 75.60662066 -24.16040039 78.28662109 C-28.69566583 83.15651922 -32.9722059 88.17066633 -37.14086914 93.36083984 C-39.28414995 95.97259733 -41.50920369 98.47777411 -43.78540039 100.97412109 C-48.48993901 106.14911358 -52.8923927 111.53418166 -57.28540039 116.97412109 C-58.30818397 118.22856079 -59.33166206 119.48243444 -60.35571289 120.73583984 C-70.36497627 132.99662684 -80.15165126 145.41878466 -89.76733398 157.99072266 C-90.883698 159.4492851 -92.00140794 160.90681764 -93.11987305 162.36376953 C-100.9159164 172.52092207 -108.63266311 182.70670678 -116.00756836 193.17382812 C-117.94897192 195.90900387 -119.92226725 198.62081457 -121.89257812 201.33520508 C-127.12621857 208.54750227 -132.30008887 215.79887829 -137.41040039 223.09912109 C-138.19785645 224.22374756 -138.19785645 224.22374756 -139.0012207 225.37109375 C-148.74520901 239.32877876 -158.32013306 253.40201581 -167.84619141 267.5090332 C-169.09427828 269.35624074 -170.34362164 271.20259996 -171.59423828 273.0480957 C-179.1389611 284.1819693 -186.51874131 295.39267409 -193.65673828 306.79174805 C-196.95210297 312.05195355 -200.36417169 317.23273251 -203.78540039 322.41162109 C-209.52859218 331.16252081 -215.00289313 340.03779422 -220.34008789 349.04052734 C-223.33467734 354.08378356 -226.42988568 359.06116488 -229.53540039 364.03662109 C-235.42395955 373.48242044 -241.10414709 383.04626645 -246.72973633 392.65014648 C-256.99903677 410.11654535 -256.99903677 410.11654535 -261.28540039 412.97412109 C-268.13335679 413.75995216 -268.13335679 413.75995216 -272.23461914 410.96240234 C-275.84132678 407.74695379 -277.9543721 403.9076763 -280.28540039 399.72412109 C-285.94237254 389.93810196 -292.1158996 380.54350035 -298.41040039 371.16162109 C-298.87317383 370.47136841 -299.33594727 369.78111572 -299.81274414 369.06994629 C-302.07729981 365.69376162 -304.34528861 362.31990788 -306.61547852 358.94750977 C-309.28085725 354.98543232 -311.92887276 351.01192863 -314.57446289 347.03662109 C-318.1960156 341.59776852 -321.84027827 336.17588107 -325.53540039 330.78662109 C-326.07495361 329.99892334 -326.61450684 329.21122559 -327.17041016 328.3996582 C-332.89493592 320.05952407 -338.70093111 311.77693599 -344.51489258 303.49902344 C-346.28903021 300.96894464 -348.05760319 298.43506796 -349.82446289 295.89990234 C-355.98684269 287.06263872 -362.20518638 278.27232039 -368.53173828 269.55175781 C-372.15548904 264.55291075 -375.73436595 259.52484441 -379.28540039 254.47412109 C-386.13486009 244.73717723 -393.11702499 235.09742445 -400.1081543 225.46191406 C-401.33063655 223.77685355 -402.55257239 222.09139648 -403.77392578 220.40551758 C-404.92675803 218.81424157 -406.08084352 217.22387256 -407.23632812 215.63452148 C-407.75267822 214.92158936 -408.26902832 214.20865723 -408.80102539 213.47412109 C-409.48600098 212.53052734 -409.48600098 212.53052734 -410.18481445 211.56787109 C-412.69322793 207.9354569 -412.85385096 205.37961303 -412.28540039 200.97412109 C-407.31446978 193.56732426 -399.78507086 187.25379989 -393.49633789 180.94482422 C-391.65055134 179.08921965 -389.81570306 177.22320756 -387.98071289 175.35693359 C-386.79907949 174.16877858 -385.61681021 172.98125554 -384.43383789 171.79443359 C-383.89101166 171.23926056 -383.34818542 170.68408752 -382.78890991 170.11209106 C-379.82988242 167.17022069 -377.34678807 165.07687914 -373.28540039 163.97412109 C-368.69968773 164.24351675 -365.88778349 165.55245292 -362.16040039 168.16162109 C-360.58838867 169.25023437 -360.58838867 169.25023437 -358.98461914 170.36083984 C-357.75143801 171.23178039 -356.51837381 172.10288652 -355.28540039 172.97412109 C-353.8133346 174.00231072 -352.3406397 175.02960005 -350.86743164 176.05615234 C-347.49611552 178.40838502 -344.12959702 180.76730093 -340.76586914 183.13037109 C-335.11789546 187.09586136 -329.45274128 191.03637996 -323.78540039 194.97412109 C-316.5483855 200.00462585 -309.31741819 205.04353419 -302.09790039 210.09912109 C-301.29537842 210.66091064 -300.49285645 211.2227002 -299.66601562 211.80151367 C-295.36405916 214.81413792 -291.06545141 217.83145425 -286.76977539 220.85302734 C-285.86251709 221.49030762 -284.95525879 222.12758789 -284.02050781 222.78417969 C-282.28529034 224.00312756 -280.55102144 225.22342729 -278.81787109 226.4453125 C-275.04508665 229.09406577 -271.29156525 231.68372785 -267.28540039 233.97412109 C-266.66793945 233.16330078 -266.05047852 232.35248047 -265.41430664 231.51708984 C-259.83977129 224.219718 -254.13419138 217.05478134 -248.28540039 209.97412109 C-246.82666412 208.18278248 -245.36833523 206.39111205 -243.91040039 204.59912109 C-239.24938046 198.90411408 -234.5070575 193.28119419 -229.7355957 187.67871094 C-228.26737 185.9529278 -226.80366507 184.22337837 -225.34008789 182.49365234 C-219.88062416 176.06145366 -214.32470778 169.7458518 -208.55712891 163.58740234 C-205.94267661 160.79275424 -203.38648672 157.95984652 -200.87524414 155.07177734 C-197.38510464 151.06480949 -193.79775472 147.1600165 -190.16040039 143.28662109 C-189.51586914 142.59890625 -188.87133789 141.91119141 -188.20727539 141.20263672 C-183.4516043 136.153233 -178.58272198 131.23256962 -173.64941406 126.35742188 C-170.22936642 122.9635467 -167.01197118 119.46604892 -163.88696289 115.80224609 C-159.78927522 111.12488553 -155.32642955 106.81977832 -150.59790039 102.78662109 C-146.80201124 99.52979313 -143.29944726 96.02776427 -139.78540039 92.47412109 C-135.78646835 88.43492183 -131.76681436 84.51690494 -127.42993164 80.83740234 C-125.12355379 78.83350028 -122.89311054 76.76145319 -120.66088867 74.67578125 C-115.33191754 69.69827249 -109.90887351 64.94323304 -104.21899414 60.37646484 C-100.73636191 57.52450902 -97.35770324 54.56579108 -93.97290039 51.59912109 C-87.47082638 45.92176474 -80.79429169 40.52418781 -73.9543457 35.26074219 C-72.34825171 34.02257435 -70.75024217 32.77394129 -69.15258789 31.52490234 C-63.00160108 26.73823216 -56.76700638 22.07095527 -50.47290039 17.47412109 C-49.79904297 16.9767041 -49.12518555 16.47928711 -48.4309082 15.96679688 C-46.96265054 14.9025999 -45.47353861 13.86684928 -43.96972656 12.85351562 C-41.92562372 11.42236477 -40.07732853 9.96939098 -38.17333984 8.37207031 C-26.47989359 -0.80814548 -14.38137149 -0.37278639 0 0 Z "  "/>
</svg> -->



<svg version="1.0" xmlns="http://www.w3.org/2000/svg" viewBox="0 0 157.000000 163.000000" preserveAspectRatio="xMidYMid meet">

   <g transform="translate(0.000000,163.000000) scale(0.100000,-0.100000)"
      fill="#388e3c" stroke="none">
      <path d="M373 1197 c-355 -355 -363 -363 -363 -402 0 -39 8 -47 363 -402 355
         -355 363 -363 402 -363 39 0 47 8 402 363 355 355 363 363 363 402 0 39 -8 47
         -363 402 -355 355 -363 363 -402 363 -39 0 -47 -8 -402 -363z"/>
   </g>
</svg>