<?xml version="1.0" encoding="UTF-8"?>
<!DOCTYPE svg PUBLIC "-//W3C//DTD SVG 1.1//EN" "http://www.w3.org/Graphics/SVG/1.1/DTD/svg11.dtd">
<svg xmlns="http://www.w3.org/2000/svg" version="1.1" width="85px" height="74px" style="shape-rendering:geometricPrecision; text-rendering:geometricPrecision; image-rendering:optimizeQuality; fill-rule:evenodd; clip-rule:evenodd" xmlns:xlink="http://www.w3.org/1999/xlink">
<g><path style="opacity:1" fill="#fefefe" d="M -0.5,-0.5 C 27.8333,-0.5 56.1667,-0.5 84.5,-0.5C 84.5,24.1667 84.5,48.8333 84.5,73.5C 56.1667,73.5 27.8333,73.5 -0.5,73.5C -0.5,48.8333 -0.5,24.1667 -0.5,-0.5 Z"/></g>
<g><path style="opacity:1" fill="#ebfbf0" d="M 69.5,20.5 C 69.5,20.1667 69.5,19.8333 69.5,19.5C 70.1217,18.3734 70.955,17.3734 72,16.5C 72.7494,15.365 72.5827,14.365 71.5,13.5C 69.8273,15.0863 67.8273,15.7529 65.5,15.5C 68.335,13.2149 71.6684,11.8816 75.5,11.5C 75.8423,16.0129 73.8423,19.0129 69.5,20.5 Z"/></g>
<g><path style="opacity:1" fill="#80d38a" d="M 69.5,19.5 C 69.1667,19.5 68.8333,19.5 68.5,19.5C 68.5299,18.5028 68.0299,17.8361 67,17.5C 65.4329,18.8561 63.5996,19.5228 61.5,19.5C 63.1392,18.5275 64.4726,17.1942 65.5,15.5C 67.8273,15.7529 69.8273,15.0863 71.5,13.5C 72.5827,14.365 72.7494,15.365 72,16.5C 70.955,17.3734 70.1217,18.3734 69.5,19.5 Z"/></g>
<g><path style="opacity:1" fill="#97e49d" d="M 61.5,19.5 C 61.0269,20.9063 60.0269,21.573 58.5,21.5C 58.9731,20.0937 59.9731,19.427 61.5,19.5 Z"/></g>
<g><path style="opacity:1" fill="#abf0bd" d="M 68.5,19.5 C 68.8333,19.5 69.1667,19.5 69.5,19.5C 69.5,19.8333 69.5,20.1667 69.5,20.5C 68.609,21.1098 67.609,21.4431 66.5,21.5C 66.8333,20.5 67.5,19.8333 68.5,19.5 Z"/></g>
<g><path style="opacity:1" fill="#80da94" d="M 58.5,21.5 C 56.8061,23.8606 54.8061,25.8606 52.5,27.5C 51.8333,27.5 51.1667,27.5 50.5,27.5C 52.8785,25.1223 55.5451,23.1223 58.5,21.5 Z"/></g>
<g><path style="opacity:1" fill="#a6eeb2" d="M 66.5,21.5 C 64.1667,25.8333 60.8333,29.1667 56.5,31.5C 59.5,27.8333 62.8333,24.5 66.5,21.5 Z"/></g>
<g><path style="opacity:1" fill="#f1fdeb" d="M 18.5,33.5 C 17.1667,33.1667 15.8333,32.8333 14.5,32.5C 12.9561,31.086 11.2894,30.7526 9.5,31.5C 9.85549,32.5223 10.5222,33.189 11.5,33.5C 11.5,34.1667 11.5,34.8333 11.5,35.5C 8.90058,33.6143 7.90058,30.9476 8.5,27.5C 10.9443,29.702 13.9443,30.8687 17.5,31C 18.2524,31.6708 18.5858,32.5041 18.5,33.5 Z"/></g>
<g><path style="opacity:1" fill="#78d485" d="M 50.5,27.5 C 50.5,28.8333 49.8333,29.5 48.5,29.5C 48.5,29.1667 48.5,28.8333 48.5,28.5C 48.8417,27.6618 49.5084,27.3284 50.5,27.5 Z"/></g>
<g><path style="opacity:1" fill="#46d55b" d="M 68.5,19.5 C 67.5,19.8333 66.8333,20.5 66.5,21.5C 62.8333,24.5 59.5,27.8333 56.5,31.5C 53.5,31.1667 52.1667,32.5 52.5,35.5C 52.1667,36.1667 51.8333,36.8333 51.5,37.5C 49.8102,37.8564 48.8102,38.8564 48.5,40.5C 44.8333,42.1667 42.1667,44.8333 40.5,48.5C 38.5,50.1667 36.5,51.8333 34.5,53.5C 31.615,52.6178 28.9483,51.2845 26.5,49.5C 26.5,48.1667 25.8333,47.5 24.5,47.5C 23.5,46.1667 22.5,44.8333 21.5,43.5C 21.5,41.5 20.5,40.5 18.5,40.5C 17.8333,40.1667 17.1667,39.8333 16.5,39.5C 16.5,38.8333 16.5,38.1667 16.5,37.5C 17.9989,36.506 19.6656,36.506 21.5,37.5C 22.8993,38.8897 24.5659,39.8897 26.5,40.5C 27.1667,40.8333 27.8333,41.1667 28.5,41.5C 29.0717,44.2436 30.7383,45.0769 33.5,44C 35.3702,41.9604 37.3702,40.1271 39.5,38.5C 40.1499,38.8039 40.8165,39.1373 41.5,39.5C 44.5536,34.8361 48.2203,30.8361 52.5,27.5C 54.8061,25.8606 56.8061,23.8606 58.5,21.5C 60.0269,21.573 61.0269,20.9063 61.5,19.5C 63.5996,19.5228 65.4329,18.8561 67,17.5C 68.0299,17.8361 68.5299,18.5028 68.5,19.5 Z"/></g>
<g><path style="opacity:1" fill="#8ad39d" d="M 14.5,32.5 C 13.209,32.2627 12.209,32.596 11.5,33.5C 10.5222,33.189 9.85549,32.5223 9.5,31.5C 11.2894,30.7526 12.9561,31.086 14.5,32.5 Z"/></g>
<g><path style="opacity:1" fill="#64cf7c" d="M 56.5,31.5 C 55.8333,32.5 55.1667,33.5 54.5,34.5C 53.8333,34.8333 53.1667,35.1667 52.5,35.5C 52.1667,32.5 53.5,31.1667 56.5,31.5 Z"/></g>
<g><path style="opacity:1" fill="#97e7a6" d="M 45.5,31.5 C 44.1667,33.5 42.5,35.1667 40.5,36.5C 41.1667,33.8333 42.8333,32.1667 45.5,31.5 Z"/></g>
<g><path style="opacity:1" fill="#effef4" d="M 48.5,28.5 C 48.5,28.8333 48.5,29.1667 48.5,29.5C 47.2905,29.9321 46.2905,30.5987 45.5,31.5C 42.8333,32.1667 41.1667,33.8333 40.5,36.5C 37.5691,38.0908 34.9024,40.0908 32.5,42.5C 31.609,41.8902 30.609,41.5569 29.5,41.5C 29.1667,40.8333 28.8333,40.1667 28.5,39.5C 30.1368,40.2178 31.8034,40.3845 33.5,40C 31.3143,39.3964 31.1476,38.2297 33,36.5C 34.8402,37.8331 35.3402,37.6665 34.5,36C 35.5,35 36.5,34 37.5,33C 41.0602,31.2818 44.7269,29.7818 48.5,28.5 Z"/></g>
<g><path style="opacity:1" fill="#b7f3bc" d="M 11.5,33.5 C 13.1667,34.8333 14.8333,36.1667 16.5,37.5C 16.5,38.1667 16.5,38.8333 16.5,39.5C 15.8333,39.1667 15.1667,38.8333 14.5,38.5C 13.8333,37.1667 12.8333,36.1667 11.5,35.5C 11.5,34.8333 11.5,34.1667 11.5,33.5 Z"/></g>
<g><path style="opacity:1" fill="#60d174" d="M 11.5,33.5 C 12.209,32.596 13.209,32.2627 14.5,32.5C 15.8333,32.8333 17.1667,33.1667 18.5,33.5C 18.5,34.8333 19.1667,35.5 20.5,35.5C 20.8333,36.1667 21.1667,36.8333 21.5,37.5C 19.6656,36.506 17.9989,36.506 16.5,37.5C 14.8333,36.1667 13.1667,34.8333 11.5,33.5 Z"/></g>
<g><path style="opacity:1" fill="#c1f4c8" d="M 20.5,35.5 C 22.0269,35.427 23.0269,36.0937 23.5,37.5C 22.8333,37.5 22.1667,37.5 21.5,37.5C 21.1667,36.8333 20.8333,36.1667 20.5,35.5 Z"/></g>
<g><path style="opacity:1" fill="#4ece63" d="M 50.5,27.5 C 51.1667,27.5 51.8333,27.5 52.5,27.5C 48.2203,30.8361 44.5536,34.8361 41.5,39.5C 40.8165,39.1373 40.1499,38.8039 39.5,38.5C 39.8333,37.8333 40.1667,37.1667 40.5,36.5C 42.5,35.1667 44.1667,33.5 45.5,31.5C 46.2905,30.5987 47.2905,29.9321 48.5,29.5C 49.8333,29.5 50.5,28.8333 50.5,27.5 Z"/></g>
<g><path style="opacity:1" fill="#cafbd6" d="M 54.5,34.5 C 54.5,36.5 53.5,37.5 51.5,37.5C 51.8333,36.8333 52.1667,36.1667 52.5,35.5C 53.1667,35.1667 53.8333,34.8333 54.5,34.5 Z"/></g>
<g><path style="opacity:1" fill="#71d580" d="M 21.5,37.5 C 22.1667,37.5 22.8333,37.5 23.5,37.5C 24.5,38.1667 25.5,38.8333 26.5,39.5C 26.5,39.8333 26.5,40.1667 26.5,40.5C 24.5659,39.8897 22.8993,38.8897 21.5,37.5 Z"/></g>
<g><path style="opacity:1" fill="#c3f9d2" d="M 51.5,37.5 C 51.1898,39.1436 50.1898,40.1436 48.5,40.5C 48.8102,38.8564 49.8102,37.8564 51.5,37.5 Z"/></g>
<g><path style="opacity:1" fill="#bbf7c2" d="M 26.5,40.5 C 26.5,40.1667 26.5,39.8333 26.5,39.5C 27.1667,39.5 27.8333,39.5 28.5,39.5C 28.8333,40.1667 29.1667,40.8333 29.5,41.5C 29.1667,41.5 28.8333,41.5 28.5,41.5C 27.8333,41.1667 27.1667,40.8333 26.5,40.5 Z"/></g>
<g><path style="opacity:1" fill="#7adc8b" d="M 40.5,36.5 C 40.1667,37.1667 39.8333,37.8333 39.5,38.5C 37.3702,40.1271 35.3702,41.9604 33.5,44C 30.7383,45.0769 29.0717,44.2436 28.5,41.5C 28.8333,41.5 29.1667,41.5 29.5,41.5C 30.221,43.3818 31.221,43.7152 32.5,42.5C 34.9024,40.0908 37.5691,38.0908 40.5,36.5 Z"/></g>
<g><path style="opacity:1" fill="#72d282" d="M 18.5,40.5 C 20.5,40.5 21.5,41.5 21.5,43.5C 20.8333,43.1667 20.1667,42.8333 19.5,42.5C 19.1667,41.8333 18.8333,41.1667 18.5,40.5 Z"/></g>
<g><path style="opacity:1" fill="#e2fee9" d="M 14.5,38.5 C 15.1667,38.8333 15.8333,39.1667 16.5,39.5C 17.1667,39.8333 17.8333,40.1667 18.5,40.5C 18.8333,41.1667 19.1667,41.8333 19.5,42.5C 16.4124,42.8034 14.7458,41.4701 14.5,38.5 Z"/></g>
<g><path style="opacity:1" fill="#c2f9cb" d="M 29.5,41.5 C 30.609,41.5569 31.609,41.8902 32.5,42.5C 31.221,43.7152 30.221,43.3818 29.5,41.5 Z"/></g>
<g><path style="opacity:1" fill="#9bebaa" d="M 48.5,40.5 C 46.1667,43.5 43.5,46.1667 40.5,48.5C 42.1667,44.8333 44.8333,42.1667 48.5,40.5 Z"/></g>
<g><path style="opacity:1" fill="#d6fddd" d="M 19.5,42.5 C 20.1667,42.8333 20.8333,43.1667 21.5,43.5C 22.5,44.8333 23.5,46.1667 24.5,47.5C 21.5,47.1667 19.8333,45.5 19.5,42.5 Z"/></g>
<g><path style="opacity:1" fill="#9eecab" d="M 24.5,47.5 C 25.8333,47.5 26.5,48.1667 26.5,49.5C 25.5,49.1667 24.8333,48.5 24.5,47.5 Z"/></g>
<g><path style="opacity:1" fill="#99e0a3" d="M 26.5,49.5 C 28.9483,51.2845 31.615,52.6178 34.5,53.5C 34.5,53.8333 34.5,54.1667 34.5,54.5C 32.1417,54.7475 30.1417,54.0808 28.5,52.5C 27.8333,51.5 27.1667,50.5 26.5,49.5 Z"/></g>
<g><path style="opacity:1" fill="#e9fdf0" d="M 28.5,52.5 C 30.1417,54.0808 32.1417,54.7475 34.5,54.5C 35.1667,54.5 35.8333,54.5 36.5,54.5C 36.1257,56.9497 34.6257,57.9497 32,57.5C 28.2651,57.3301 27.0985,55.6635 28.5,52.5 Z"/></g>
<g><path style="opacity:1" fill="#d4fbd8" d="M 40.5,48.5 C 39.5849,50.7541 38.2516,52.7541 36.5,54.5C 35.8333,54.5 35.1667,54.5 34.5,54.5C 34.5,54.1667 34.5,53.8333 34.5,53.5C 36.5,51.8333 38.5,50.1667 40.5,48.5 Z"/></g>
</svg>
