<?xml version="1.0" encoding="UTF-8"?>
<!DOCTYPE svg PUBLIC "-//W3C//DTD SVG 1.1//EN" "http://www.w3.org/Graphics/SVG/1.1/DTD/svg11.dtd">
<svg xmlns="http://www.w3.org/2000/svg" version="1.1" width="88px" height="84px" style="shape-rendering:geometricPrecision; text-rendering:geometricPrecision; image-rendering:optimizeQuality; fill-rule:evenodd; clip-rule:evenodd" xmlns:xlink="http://www.w3.org/1999/xlink">
<g><path style="opacity:1" fill="#fefefe" d="M -0.5,-0.5 C 28.8333,-0.5 58.1667,-0.5 87.5,-0.5C 87.5,27.5 87.5,55.5 87.5,83.5C 58.1667,83.5 28.8333,83.5 -0.5,83.5C -0.5,55.5 -0.5,27.5 -0.5,-0.5 Z"/></g>
<g><path style="opacity:1" fill="#d5f9db" d="M 75.5,21.5 C 75.5,20.1667 75.5,18.8333 75.5,17.5C 73.5853,17.2155 71.9187,17.5489 70.5,18.5C 69.8333,18.5 69.1667,18.5 68.5,18.5C 70.0808,16.9137 72.0808,15.9137 74.5,15.5C 75.9458,16.1709 76.6125,17.3376 76.5,19C 76.472,20.0698 76.1386,20.9032 75.5,21.5 Z"/></g>
<g><path style="opacity:1" fill="#73ca80" d="M 70.5,18.5 C 71.9187,17.5489 73.5853,17.2155 75.5,17.5C 75.5,18.8333 75.5,20.1667 75.5,21.5C 74.8333,21.8333 74.1667,22.1667 73.5,22.5C 73.9118,20.0274 72.9118,18.6941 70.5,18.5 Z"/></g>
<g><path style="opacity:1" fill="#94e5a7" d="M 68.5,18.5 C 65.4823,21.3373 62.149,23.6706 58.5,25.5C 56.5,26.5 54.5,27.5 52.5,28.5C 56.8485,23.6556 62.1818,20.3222 68.5,18.5 Z"/></g>
<g><path style="opacity:1" fill="#a5f2b4" d="M 73.5,22.5 C 72.7377,24.2624 71.4044,25.2624 69.5,25.5C 70.2623,23.7376 71.5956,22.7376 73.5,22.5 Z"/></g>
<g><path style="opacity:1" fill="#87dd94" d="M 69.5,25.5 C 66.2635,28.2806 63.2635,31.2806 60.5,34.5C 60.5,33.8333 60.5,33.1667 60.5,32.5C 62.9093,29.4557 65.9093,27.1223 69.5,25.5 Z"/></g>
<g><path style="opacity:1" fill="#41d758" d="M 68.5,18.5 C 69.1667,18.5 69.8333,18.5 70.5,18.5C 72.9118,18.6941 73.9118,20.0274 73.5,22.5C 71.5956,22.7376 70.2623,23.7376 69.5,25.5C 65.9093,27.1223 62.9093,29.4557 60.5,32.5C 58.8333,32.5 57.1667,32.5 55.5,32.5C 54.9729,35.2314 54.1396,37.8981 53,40.5C 52.7811,39.062 52.2811,37.7287 51.5,36.5C 49.2159,37.843 48.3826,37.1764 49,34.5C 52.1454,31.3683 55.3121,28.3683 58.5,25.5C 62.149,23.6706 65.4823,21.3373 68.5,18.5 Z"/></g>
<g><path style="opacity:1" fill="#eefdf2" d="M 20.5,35.5 C 19.8333,36.1667 19.1667,36.8333 18.5,37.5C 16.5159,37.484 15.5159,38.484 15.5,40.5C 15.4534,42.0377 16.1201,43.0377 17.5,43.5C 17.7036,45.6854 18.3702,47.6854 19.5,49.5C 18.3121,48.3157 17.1455,48.3157 16,49.5C 15.5045,47.5273 15.3379,45.5273 15.5,43.5C 14.5,43.5 13.5,43.5 12.5,43.5C 12.955,41.6334 13.6216,39.8001 14.5,38C 14.2451,36.6739 13.5784,35.6739 12.5,35C 15.1194,35.0833 17.786,35.25 20.5,35.5 Z"/></g>
<g><path style="opacity:1" fill="#e8ffed" d="M 44.5,34.5 C 42.8333,36.8333 40.8333,38.8333 38.5,40.5C 38.8333,36.8333 40.8333,34.8333 44.5,34.5 Z"/></g>
<g><path style="opacity:1" fill="#7ad686" d="M 20.5,35.5 C 22.9468,35.615 24.9468,36.615 26.5,38.5C 26.5,38.8333 26.5,39.1667 26.5,39.5C 24.1175,37.9539 21.4509,37.2872 18.5,37.5C 19.1667,36.8333 19.8333,36.1667 20.5,35.5 Z"/></g>
<g><path style="opacity:1" fill="#8ee19a" d="M 52.5,28.5 C 47.1388,34.1929 41.8054,39.8596 36.5,45.5C 36.8925,43.7162 37.5592,42.0495 38.5,40.5C 40.8333,38.8333 42.8333,36.8333 44.5,34.5C 46.9024,32.0908 49.5691,30.0908 52.5,28.5 Z"/></g>
<g><path style="opacity:1" fill="#a7e9ac" d="M 60.5,34.5 C 58.984,37.5331 56.984,40.1997 54.5,42.5C 55.5293,39.1092 57.5293,36.4426 60.5,34.5 Z"/></g>
<g><path style="opacity:1" fill="#84d794" d="M 18.5,37.5 C 17.6586,39.3792 17.3253,41.3792 17.5,43.5C 16.1201,43.0377 15.4534,42.0377 15.5,40.5C 15.5159,38.484 16.5159,37.484 18.5,37.5 Z"/></g>
<g><path style="opacity:1" fill="#a8ecae" d="M 54.5,42.5 C 53.3449,45.4749 51.6782,48.1416 49.5,50.5C 49.1667,50.5 48.8333,50.5 48.5,50.5C 50.016,47.4669 52.016,44.8003 54.5,42.5 Z"/></g>
<g><path style="opacity:1" fill="#62d171" d="M 17.5,43.5 C 20.5469,45.9181 22.8802,48.9181 24.5,52.5C 24.5,53.1667 24.5,53.8333 24.5,54.5C 23.1667,53.1667 21.8333,51.8333 20.5,50.5C 20.5,49.8333 20.1667,49.5 19.5,49.5C 18.3702,47.6854 17.7036,45.6854 17.5,43.5 Z"/></g>
<g><path style="opacity:1" fill="#4ad361" d="M 36.5,67.5 C 35.4324,68.4345 34.099,68.7678 32.5,68.5C 31.5,67.8333 30.5,67.1667 29.5,66.5C 29.0113,65.0048 28.3446,63.6715 27.5,62.5C 26.4485,59.8069 25.4485,57.1402 24.5,54.5C 24.5,53.8333 24.5,53.1667 24.5,52.5C 26.446,51.6907 28.1127,51.6907 29.5,52.5C 27.8267,54.5225 27.1601,56.8559 27.5,59.5C 29.5,59.5 31.5,59.5 33.5,59.5C 33.6427,61.2624 33.3094,62.9291 32.5,64.5C 33.0766,66.5499 34.4099,67.5499 36.5,67.5 Z"/></g>
<g><path style="opacity:1" fill="#43d65a" d="M 58.5,25.5 C 55.3121,28.3683 52.1454,31.3683 49,34.5C 48.3826,37.1764 49.2159,37.843 51.5,36.5C 52.2811,37.7287 52.7811,39.062 53,40.5C 54.1396,37.8981 54.9729,35.2314 55.5,32.5C 57.1667,32.5 58.8333,32.5 60.5,32.5C 60.5,33.1667 60.5,33.8333 60.5,34.5C 57.5293,36.4426 55.5293,39.1092 54.5,42.5C 52.016,44.8003 50.016,47.4669 48.5,50.5C 46.9891,51.5025 45.3224,52.1692 43.5,52.5C 43.5,54.5 43.5,56.5 43.5,58.5C 43.1667,59.1667 42.8333,59.8333 42.5,60.5C 41.4168,60.5394 40.4168,60.8728 39.5,61.5C 38.9892,63.8839 37.9892,65.8839 36.5,67.5C 34.4099,67.5499 33.0766,66.5499 32.5,64.5C 33.3094,62.9291 33.6427,61.2624 33.5,59.5C 31.5,59.5 29.5,59.5 27.5,59.5C 27.1601,56.8559 27.8267,54.5225 29.5,52.5C 28.1127,51.6907 26.446,51.6907 24.5,52.5C 22.8802,48.9181 20.5469,45.9181 17.5,43.5C 17.3253,41.3792 17.6586,39.3792 18.5,37.5C 21.4509,37.2872 24.1175,37.9539 26.5,39.5C 27.5,41.1667 28.8333,42.5 30.5,43.5C 31.7131,47.6295 33.7131,48.2961 36.5,45.5C 41.8054,39.8596 47.1388,34.1929 52.5,28.5C 54.5,27.5 56.5,26.5 58.5,25.5 Z"/></g>
<g><path style="opacity:1" fill="#85df93" d="M 30.5,43.5 C 31.8149,44.4756 33.1482,45.4756 34.5,46.5C 35.1835,46.1373 35.8501,45.8039 36.5,45.5C 33.7131,48.2961 31.7131,47.6295 30.5,43.5 Z"/></g>
<g><path style="opacity:1" fill="#eaffee" d="M 38.5,40.5 C 37.5592,42.0495 36.8925,43.7162 36.5,45.5C 35.8501,45.8039 35.1835,46.1373 34.5,46.5C 33.1482,45.4756 31.8149,44.4756 30.5,43.5C 30.5,43.1667 30.5,42.8333 30.5,42.5C 31.6948,42.6775 32.8615,43.0109 34,43.5C 35.1233,41.9003 36.6233,40.9003 38.5,40.5 Z"/></g>
<g><path style="opacity:1" fill="#b0f4b9" d="M 26.5,38.5 C 28.1667,39.5 29.5,40.8333 30.5,42.5C 30.5,42.8333 30.5,43.1667 30.5,43.5C 28.8333,42.5 27.5,41.1667 26.5,39.5C 26.5,39.1667 26.5,38.8333 26.5,38.5 Z"/></g>
<g><path style="opacity:1" fill="#5bd06b" d="M 48.5,50.5 C 46.7678,53.2096 45.1011,55.8763 43.5,58.5C 43.5,56.5 43.5,54.5 43.5,52.5C 45.3224,52.1692 46.9891,51.5025 48.5,50.5 Z"/></g>
<g><path style="opacity:1" fill="#caf8cf" d="M 20.5,50.5 C 21.8333,51.8333 23.1667,53.1667 24.5,54.5C 25.4485,57.1402 26.4485,59.8069 27.5,62.5C 23.5774,59.5441 21.244,55.5441 20.5,50.5 Z"/></g>
<g><path style="opacity:1" fill="#e5fde6" d="M 48.5,50.5 C 48.8333,50.5 49.1667,50.5 49.5,50.5C 49.7896,54.5014 48.2896,57.5014 45,59.5C 43.3478,63.1141 41.8478,66.7808 40.5,70.5C 37.9952,71.4171 35.6618,71.4171 33.5,70.5C 34.791,70.7373 35.791,70.404 36.5,69.5C 39.2307,67.0536 41.2307,64.0536 42.5,60.5C 42.8333,59.8333 43.1667,59.1667 43.5,58.5C 45.1011,55.8763 46.7678,53.2096 48.5,50.5 Z"/></g>
<g><path style="opacity:1" fill="#adecb4" d="M 29.5,66.5 C 30.5,67.1667 31.5,67.8333 32.5,68.5C 33.5676,69.4345 34.901,69.7678 36.5,69.5C 35.791,70.404 34.791,70.7373 33.5,70.5C 31.1667,70.1667 29.8333,68.8333 29.5,66.5 Z"/></g>
<g><path style="opacity:1" fill="#5dcc72" d="M 42.5,60.5 C 41.2307,64.0536 39.2307,67.0536 36.5,69.5C 34.901,69.7678 33.5676,69.4345 32.5,68.5C 34.099,68.7678 35.4324,68.4345 36.5,67.5C 37.9892,65.8839 38.9892,63.8839 39.5,61.5C 40.4168,60.8728 41.4168,60.5394 42.5,60.5 Z"/></g>
</svg>
