<?xml version="1.0" encoding="UTF-8"?>
<svg version="1.1" xmlns="http://www.w3.org/2000/svg" width="512" height="512">
<path 
fill="#388e3c" 
 

 d="M0 0 C2.63117382 1.76422024 3.35025914 3.12625786 5 6 C5.69313788 11.29915092 3.91202593 14.60595414 1.125 18.9375 C0.71717285 19.59298828 0.3093457 20.24847656 -0.11083984 20.92382812 C-3.6777555 26.61238495 -7.40662187 32.19523361 -11.16015625 37.76171875 C-14.51289629 42.74474509 -17.78651361 47.77881272 -21.0625 52.8125 C-22.3554416 54.79819476 -23.64841098 56.78387143 -24.94140625 58.76953125 C-25.60414551 59.78740723 -26.26688477 60.8052832 -26.94970703 61.85400391 C-30.45999584 67.24023653 -33.98033086 72.61989431 -37.5 78 C-45.34414524 89.99296061 -53.17440907 101.9949268 -61 114 C-69.54363194 127.1066047 -78.09544929 140.20778667 -86.65917969 153.30126953 C-93.78284853 164.19428977 -100.89245003 175.09645822 -108 186 C-116.54363194 199.1066047 -125.09544929 212.20778667 -133.65917969 225.30126953 C-140.78284853 236.19428977 -147.89245003 247.09645822 -155 258 C-163.54363194 271.1066047 -172.09544929 284.20778667 -180.65917969 297.30126953 C-185.31914192 304.42696052 -189.97442351 311.55568011 -194.625 318.6875 C-195.54478638 320.09757324 -195.54478638 320.09757324 -196.4831543 321.53613281 C-199.53831376 326.22073756 -202.5902836 330.90737286 -205.63671875 335.59765625 C-212.21206166 345.71491488 -218.81992056 355.8110025 -225.48446655 365.86975098 C-226.27921825 367.07059799 -227.07240109 368.27248495 -227.86392212 369.47546387 C-228.97112562 371.15722784 -230.08505006 372.8345611 -231.19921875 374.51171875 C-231.83690186 375.47553467 -232.47458496 376.43935059 -233.1315918 377.43237305 C-235.70486454 380.96864764 -237.6596215 383.56292006 -241.875 384.9375 C-246.4935205 385.02987041 -249.23133372 383.55167713 -252.6875 380.51953125 C-256.26947234 377.02550913 -259.53517194 373.27101411 -262.80078125 369.484375 C-265.72366071 366.18250762 -268.73517681 362.96782936 -271.75 359.75 C-277.87886916 353.20719321 -283.95347508 346.61897698 -290 340 C-291.81165745 338.02006087 -293.62436315 336.04108438 -295.4375 334.0625 C-295.88891357 333.56983643 -296.34032715 333.07717285 -296.80541992 332.56958008 C-300.19540775 328.87212125 -303.5959566 325.18451817 -307 321.5 C-313.13698573 314.85735983 -319.24768607 308.19088363 -325.35449219 301.52050781 C-331.06260755 295.28637461 -336.7830084 289.0639464 -342.51928711 282.85571289 C-346.30851177 278.75321792 -350.0842269 274.63855333 -353.85546875 270.51953125 C-357.22787289 266.83790953 -360.61171781 263.16700977 -364 259.5 C-368.29645031 254.85011419 -372.58028402 250.18896933 -376.85546875 245.51953125 C-380.22787289 241.83790953 -383.61171781 238.16700977 -387 234.5 C-391.29434202 229.85239592 -395.57674733 225.19414957 -399.84887695 220.52612305 C-402.76780849 217.33854277 -405.69749445 214.16122264 -408.63549805 210.99121094 C-410.15827538 209.34411058 -411.67291697 207.6897889 -413.1875 206.03515625 C-414.9240107 204.14351568 -416.68398281 202.31494846 -418.5 200.49609375 C-422.62050122 196.26522196 -425.13629382 193.07587869 -425.31640625 187.015625 C-424.81543419 183.82424745 -423.33620322 182.13595723 -421 180 C-417.94567432 178.47283716 -415.37949556 178.80302947 -412 179 C-408.9909668 180.03125 -408.9909668 180.03125 -405.94921875 181.5 C-404.21551025 182.32383179 -404.21551025 182.32383179 -402.44677734 183.16430664 C-401.19362624 183.77608429 -399.94053558 184.38798577 -398.6875 185 C-397.36475814 185.63346654 -396.04133692 186.26551619 -394.71728516 186.89624023 C-391.9147893 188.23307233 -389.11570614 189.57670806 -386.31884766 190.92529297 C-379.90814166 194.01164723 -373.46510118 197.02927626 -367.02456665 200.05273438 C-364.86160588 201.06879193 -362.69958285 202.08681896 -360.5378418 203.10546875 C-350.58115874 207.79636447 -340.60428662 212.44185977 -330.61669922 217.06665039 C-322.1225388 221.00410436 -313.64779098 224.98146799 -305.17910767 228.97335815 C-303.01728711 229.99185553 -300.85483395 231.00899627 -298.69213867 232.02563477 C-297.26740827 232.69546017 -295.84268493 233.3653006 -294.41796875 234.03515625 C-293.71697556 234.36471817 -293.01598236 234.69428009 -292.29374695 235.03382874 C-288.14237018 236.98710561 -283.99630786 238.9511471 -279.85427856 240.92416382 C-277.28231025 242.14740694 -274.70686518 243.36319712 -272.13061523 244.57739258 C-270.36455717 245.41287298 -268.60309736 246.25805174 -266.84179688 247.10351562 C-259.23804792 250.8640185 -259.23804792 250.8640185 -251 252 C-248.47625867 250.47987481 -248.47625867 250.47987481 -246.5 248.0625 C-245.8090625 247.31097656 -245.118125 246.55945313 -244.40625 245.78515625 C-243.08186638 244.25222521 -241.75876013 242.71817561 -240.44140625 241.17919922 C-235.54207613 235.50358635 -230.31106076 230.24763048 -224.9609375 225 C-221.04013229 221.12460953 -217.34324905 217.14503915 -213.74609375 212.96875 C-210.81371565 209.66244449 -207.65415868 206.59281885 -204.5 203.5 C-198.82399606 197.91548793 -198.82399606 197.91548793 -193.5 192 C-189.4619844 187.20485648 -184.91874941 182.8954922 -180.46875 178.48828125 C-177.36994552 175.40792204 -174.31670228 172.34483396 -171.5 169 C-167.4619844 164.20485648 -162.91874941 159.8954922 -158.46875 155.48828125 C-155.36994552 152.40792204 -152.31670228 149.34483396 -149.5 146 C-145.4619844 141.20485648 -140.91874941 136.8954922 -136.46875 132.48828125 C-133.36994552 129.40792204 -130.31670228 126.34483396 -127.5 123 C-123.4619844 118.20485648 -118.91874941 113.8954922 -114.46875 109.48828125 C-111.36994552 106.40792204 -108.31670228 103.34483396 -105.5 100 C-101.50285581 95.25339127 -97.01876691 90.96978373 -92.59179688 86.62890625 C-89.44497522 83.52474224 -86.41664009 80.38118135 -83.53125 77.03125 C-79.26860087 72.08772778 -74.61799832 67.5678451 -69.9609375 63 C-66.04013229 59.12460953 -62.34324905 55.14503915 -58.74609375 50.96875 C-55.81371565 47.66244449 -52.65415868 44.59281885 -49.5 41.5 C-43.82399606 35.91548793 -43.82399606 35.91548793 -38.5 30 C-34.46972663 25.21405038 -29.93711005 20.91072606 -25.49291992 16.51464844 C-21.60859377 12.65707049 -17.86297914 8.75802407 -14.39453125 4.515625 C-10.13148825 -0.1175982 -6.16580132 -1.34945474 0 0 Z "  transform="translate(466,43)"/>
</svg>
