<?xml version="1.0" encoding="UTF-8"?>
<svg version="1.1" xmlns="http://www.w3.org/2000/svg" width="512" height="512">
<path fill="#00796b" d="M0 0 C4.36957148 2.00505017 7.20437207 4.50261708 9 9 C10.06176742 14.72741847 9.24149774 19.1487364 6.34375 24.171875 C5.79783203 25.1316626 5.25191406 26.0914502 4.68945312 27.08032227 C4.13193359 28.04381592 3.57441406 29.00730957 3 30 C2.01905296 31.75291112 1.03984881 33.50679886 0.0625 35.26171875 C-0.95696043 37.07108673 -1.97784659 38.87965198 -3 40.6875 C-3.5583252 41.67516357 -4.11665039 42.66282715 -4.69189453 43.68041992 C-9.27309445 51.76162596 -13.93713304 59.79257062 -18.62915039 67.80981445 C-24.837196 78.41811048 -30.97379721 89.06716947 -37.10888672 99.71777344 C-40.23680148 105.14659942 -43.36858448 110.57319281 -46.5 116 C-47.75001879 118.16665583 -49.00001878 120.3333225 -50.25 122.5 C-62.75 144.16666667 -75.25 165.83333333 -87.75 187.5 C-88.36883057 188.57266113 -88.98766113 189.64532227 -89.62524414 190.75048828 C-90.87435518 192.91557071 -92.12354129 195.08060982 -93.37280273 197.24560547 C-96.51202309 202.68615706 -99.64990563 208.12747216 -102.78515625 213.5703125 C-109.40222892 225.0544882 -116.04633977 236.52196894 -122.73291016 247.96582031 C-128.89919054 258.52620282 -135.0049595 269.12126766 -141.10888672 279.71777344 C-144.23680148 285.14659942 -147.36858448 290.57319281 -150.5 296 C-151.75001879 298.16665583 -153.00001878 300.3333225 -154.25 302.5 C-171.75 332.83333333 -189.25 363.16666667 -206.75 393.5 C-207.36883057 394.57266113 -207.98766113 395.64532227 -208.62524414 396.75048828 C-209.87435518 398.91557071 -211.12354129 401.08060982 -212.37280273 403.24560547 C-215.51202309 408.68615706 -218.64990563 414.12747216 -221.78515625 419.5703125 C-224.89828978 424.97412117 -228.01627275 430.37510725 -231.13720703 435.77441406 C-232.39505722 437.95248965 -233.65120102 440.13155146 -234.90576172 442.31152344 C-236.76619319 445.54352781 -238.63250931 448.77207063 -240.5 452 C-241.32673218 453.44076904 -241.32673218 453.44076904 -242.17016602 454.91064453 C-253.78386713 474.92795571 -253.78386713 474.92795571 -263 478 C-265.18087785 478.22404337 -267.37158124 478.35813631 -269.5625 478.4375 C-270.71878906 478.49808594 -271.87507812 478.55867188 -273.06640625 478.62109375 C-280.33657131 477.47317295 -286.00329371 473.67609507 -290.546875 467.92578125 C-291.63322854 466.40113566 -292.70037912 464.86266263 -293.75 463.3125 C-294.95003532 461.61424015 -296.15057065 459.91633354 -297.3515625 458.21875 C-297.95387695 457.35378906 -298.55619141 456.48882812 -299.17675781 455.59765625 C-302.08806024 451.44979098 -305.10824427 447.38395159 -308.125 443.3125 C-309.29432709 441.72530186 -310.46359862 440.13806279 -311.6328125 438.55078125 C-314.73435784 434.35139855 -317.86181853 430.17204605 -321 426 C-327.13028521 417.8501105 -333.17710259 409.6397739 -339.21777344 401.42333984 C-342.14230746 397.44677482 -345.07135433 393.47353729 -348 389.5 C-349.16668888 387.91668304 -350.33335553 386.33334969 -351.5 384.75 C-352.0775 383.96625 -352.655 383.1825 -353.25 382.375 C-358.5 375.25 -358.5 375.25 -360.25048828 372.87426758 C-361.41543849 371.29331017 -362.58047734 369.71241808 -363.74560547 368.1315918 C-366.6892698 364.13744172 -369.63131346 360.1421157 -372.5703125 356.14453125 C-378.01636895 348.73980537 -383.47457766 341.34575634 -389 334 C-395.13028521 325.8501105 -401.17710259 317.6397739 -407.21777344 309.42333984 C-410.14230746 305.44677482 -413.07135433 301.47353729 -416 297.5 C-417.16668888 295.91668304 -418.33335553 294.33334969 -419.5 292.75 C-420.0775 291.96625 -420.655 291.1825 -421.25 290.375 C-426.5 283.25 -426.5 283.25 -428.25048828 280.87426758 C-429.41543849 279.29331017 -430.58047734 277.71241808 -431.74560547 276.1315918 C-434.6892698 272.13744172 -437.63131346 268.1421157 -440.5703125 264.14453125 C-441.7551018 262.5337758 -442.93999692 260.92309818 -444.125 259.3125 C-444.70185547 258.5282666 -445.27871094 257.7440332 -445.87304688 256.93603516 C-449.20293685 252.41622686 -452.5588709 247.91766018 -455.94384766 243.43896484 C-457.89635916 240.84929865 -459.8302478 238.24602088 -461.76367188 235.64208984 C-462.84387292 234.20736784 -463.95828917 232.79853595 -465.078125 231.39453125 C-468.78037415 226.50721637 -469.82764613 222.68208096 -469.45703125 216.51953125 C-468.59819815 211.78493854 -466.37550963 209.17900825 -462.8125 206.125 C-457.48888034 203.99555213 -453.37953048 204.0823191 -448.11328125 206.11328125 C-444.33136 207.95177855 -440.66422124 209.93882451 -437 212 C-436.20352051 212.44537109 -435.40704102 212.89074219 -434.58642578 213.34960938 C-429.86057767 215.99801433 -425.14872089 218.67038089 -420.44140625 221.3515625 C-413.61754272 225.22954761 -406.75060507 229.02740696 -399.875 232.8125 C-399.26826447 233.14666931 -398.66152893 233.48083862 -398.03640747 233.82513428 C-394.93484911 235.53327747 -391.83282881 237.24057898 -388.73046875 238.94726562 C-382.60963765 242.31476233 -376.49215702 245.68833511 -370.375 249.0625 C-369.77419617 249.39383942 -369.17339233 249.72517883 -368.55438232 250.06655884 C-359.86061772 254.86162448 -351.17706098 259.67475401 -342.5 264.5 C-338.00053374 267.00096138 -333.50063161 269.50113634 -329 272 C-328.06398956 272.51971375 -328.06398956 272.51971375 -327.10906982 273.04992676 C-323.18755455 275.22678295 -319.26453872 277.40090313 -315.33984375 279.57202148 C-314.09351038 280.26188748 -312.84756455 280.95245419 -311.60205078 281.64379883 C-308.76981827 283.21558332 -305.9327094 284.77685458 -303.08544922 286.32128906 C-301.09509851 287.404186 -299.11637456 288.50886885 -297.15283203 289.63964844 C-292.22702428 292.43338704 -292.22702428 292.43338704 -286.71484375 292.6328125 C-283.50561965 290.70266045 -281.15697522 288.57867664 -278.5625 285.875 C-278.08586914 285.38290039 -277.60923828 284.89080078 -277.11816406 284.38378906 C-273.83227965 280.96442254 -270.68759596 277.43404098 -267.609375 273.828125 C-265.43628215 271.35966031 -263.09527631 269.08464637 -260.75 266.78125 C-258.91757513 264.91610326 -257.20646865 262.98072254 -255.5 261 C-252.71760668 257.77043633 -249.78980571 254.76677347 -246.75 251.78125 C-244.91757513 249.91610326 -243.20646865 247.98072254 -241.5 246 C-238.71760668 242.77043633 -235.78980571 239.76677347 -232.75 236.78125 C-230.91757513 234.91610326 -229.20646865 232.98072254 -227.5 231 C-224.71760668 227.77043633 -221.78980571 224.76677347 -218.75 221.78125 C-216.91757513 219.91610326 -215.20646865 217.98072254 -213.5 216 C-211.2544206 213.39352391 -208.95448488 210.91065479 -206.5 208.5 C-204.06610268 206.10946833 -201.78644441 203.64953738 -199.5625 201.0625 C-196.52320349 197.53365237 -193.28983153 194.26994973 -189.97265625 191.00390625 C-187.42662171 188.41753849 -185.07978443 185.6846472 -182.71484375 182.93359375 C-180.4995262 180.43568444 -178.1310183 178.11975011 -175.75 175.78125 C-173.91757513 173.91610326 -172.20646865 171.98072254 -170.5 170 C-167.71760668 166.77043633 -164.78980571 163.76677347 -161.75 160.78125 C-159.91757513 158.91610326 -158.20646865 156.98072254 -156.5 155 C-153.71760668 151.77043633 -150.78980571 148.76677347 -147.75 145.78125 C-145.91757513 143.91610326 -144.20646865 141.98072254 -142.5 140 C-139.71760668 136.77043633 -136.78980571 133.76677347 -133.75 130.78125 C-131.91757513 128.91610326 -130.20646865 126.98072254 -128.5 125 C-125.71760668 121.77043633 -122.78980571 118.76677347 -119.75 115.78125 C-117.91757513 113.91610326 -116.20646865 111.98072254 -114.5 110 C-111.71760668 106.77043633 -108.78980571 103.76677347 -105.75 100.78125 C-103.91757513 98.91610326 -102.20646865 96.98072254 -100.5 95 C-97.71760668 91.77043633 -94.78980571 88.76677347 -91.75 85.78125 C-89.91757513 83.91610326 -88.20646865 81.98072254 -86.5 80 C-83.71760668 76.77043633 -80.78980571 73.76677347 -77.75 70.78125 C-75.91757513 68.91610326 -74.20646865 66.98072254 -72.5 65 C-69.71760668 61.77043633 -66.78980571 58.76677347 -63.75 55.78125 C-61.91757513 53.91610326 -60.20646865 51.98072254 -58.5 50 C-55.71760668 46.77043633 -52.78980571 43.76677347 -49.75 40.78125 C-47.91757513 38.91610326 -46.20646865 36.98072254 -44.5 35 C-41.71760668 31.77043633 -38.78980571 28.76677347 -35.75 25.78125 C-33.29492602 23.28233541 -31.03921997 20.62607419 -28.75390625 17.97265625 C-26.50724988 15.4457933 -24.11217151 13.09704435 -21.6953125 10.734375 C-19.45523242 8.44268018 -17.44885107 5.9888989 -15.45703125 3.48046875 C-11.18802746 -0.85720534 -5.7250898 -0.87063578 0 0 Z "  transform="translate(486,17)"/>
</svg>
